<?xml version="1.0" encoding="UTF-8"?>
<svg xmlns="http://www.w3.org/2000/svg" width="251.41" height="264.86" viewBox="0 0 251.41 264.86">
    <defs>
        <style>
            .cls-1 {
                mix-blend-mode: hard-light;
            }

            .cls-2 {
                isolation: isolate;
            }

            .cls-3 {
                fill: #8ceeee;
            }
        </style>
    </defs>
    <g class="cls-2">
        <g id="Layer_1" data-name="Layer 1">
            <g id="tile8" class="cls-1">
                <g>
                    <path class="cls-3"
                        d="m237.88,158.08v46.1l-112.17,46.06L13.53,204.18v-46.1h33.83v23.41l8.39,3.45,64.81,26.61,5.14,2.11,5.14-2.11,64.81-26.61,8.39-3.45v-23.41h33.83m13.53-13.53h-60.9v27.87l-64.81,26.61-64.81-26.61v-27.87H0v68.7l125.71,51.61,125.71-51.61v-68.7h0Z" />
                    <path class="cls-3"
                        d="m125.71,14.63l112.17,46.06v46.1h-33.83v-23.41l-8.39-3.45-64.81-26.61-5.14-2.11-5.14,2.11-64.81,26.61-8.39,3.45v23.41H13.53v-46.1L125.71,14.63m0-14.63L0,51.61v68.7h60.9v-27.87l64.81-26.61,64.81,26.61v27.87h60.9V51.61L125.71,0h0Z" />
                </g>
                <g>
                    <g>
                        <polygon class="cls-3"
                            points="151.55 132.43 161.11 122.88 161.11 114.2 142.88 132.43 161.11 150.66 161.11 141.98 151.55 132.43" />
                        <polygon class="cls-3"
                            points="99.86 132.43 90.31 122.88 90.31 114.2 108.53 132.43 90.31 150.66 90.31 141.98 99.86 132.43" />
                    </g>
                    <g>
                        <polygon class="cls-3"
                            points="125.71 158.28 135.26 167.83 143.93 167.83 125.71 149.6 107.48 167.83 116.15 167.83 125.71 158.28" />
                        <polygon class="cls-3"
                            points="125.71 106.58 135.26 97.03 143.93 97.03 125.71 115.26 107.48 97.03 116.15 97.03 125.71 106.58" />
                    </g>
                </g>
            </g>
        </g>
    </g>
</svg>