<?xml version="1.0" encoding="UTF-8"?>
<svg xmlns="http://www.w3.org/2000/svg" width="414.2" height="192.46" viewBox="0 0 414.2 192.46">
    <defs>
        <style>
            .cls-1 {
                opacity: .3;
            }

            .cls-1,
            .cls-2 {
                fill: #8ceeee;
            }
        </style>
    </defs>
    <g id="lines">
        <g>
            <g>
                <path class="cls-2"
                    d="m206.48,50.71c-1.11,0-2.01-.9-2.01-2.01v-29.11c0-1.11.9-2.01,2.01-2.01s2.01.9,2.01,2.01v29.11c0,1.11-.9,2.01-2.01,2.01Z" />
                <path class="cls-2"
                    d="m206.48,174.87c-1.11,0-2.01-.9-2.01-2.01v-29.11c0-1.11.9-2.01,2.01-2.01s2.01.9,2.01,2.01v29.11c0,1.11-.9,2.01-2.01,2.01Z" />
            </g>
            <g>
                <path class="cls-2"
                    d="m283.73,98.65h-29.11c-1.11,0-2.01-.9-2.01-2.01s.9-2.01,2.01-2.01h29.11c1.11,0,2.01.9,2.01,2.01s-.9,2.01-2.01,2.01Z" />
                <path class="cls-2"
                    d="m159.57,98.65h-29.11c-1.11,0-2.01-.9-2.01-2.01s.9-2.01,2.01-2.01h29.11c1.11,0,2.01.9,2.01,2.01s-.9,2.01-2.01,2.01Z" />
            </g>
        </g>
    </g>
    <g id="center">
        <path class="cls-2"
            d="m207.1,56.63l-39.6,39.6,39.6,39.6,39.6-39.6-39.6-39.6Zm-18.38,39.6l18.38-18.38,18.38,18.38-18.38,18.38-18.38-18.38Z" />
    </g>
    <g id="left-arrows">
        <g>
            <polygon class="cls-2"
                points="159.56 0 177.6 18.43 98.1 96.23 177.6 174.04 159.56 192.46 61.23 96.23 159.56 0" />
            <polygon class="cls-1"
                points="98.33 0 116.36 18.43 36.86 96.23 116.36 174.04 98.33 192.46 0 96.23 98.33 0" />
        </g>
    </g>
    <g id="right-arrows">
        <g>
            <polygon class="cls-2"
                points="254.64 192.46 236.6 174.04 316.1 96.23 236.6 18.43 254.64 0 352.96 96.23 254.64 192.46" />
            <polygon class="cls-1"
                points="315.87 192.46 297.84 174.04 377.34 96.23 297.84 18.43 315.87 0 414.2 96.23 315.87 192.46" />
        </g>
    </g>
</svg>