<?xml version="1.0" encoding="UTF-8"?>
<svg xmlns="http://www.w3.org/2000/svg" width="283.13" height="248.7" viewBox="0 0 283.13 248.7">
    <defs>
        <style>
            .cls-1 {
                fill: #8ceeee;

            }
        </style>
    </defs>
    <g id="lines">
        <g>
            <path class="cls-1"
                d="m153.38,248.7l-11.72-97.85c-.07-.57-.52-1.04-1.11-1.11-.69-.08-1.33.41-1.41,1.11l-11.72,97.85h25.95Z" />
            <path class="cls-1"
                d="m270.41,4.27l-79.54,58.19c-.46.34-.65.96-.42,1.51.27.65,1.01.95,1.66.68l91.03-37.76-12.72-22.62Z" />
            <path class="cls-1"
                d="m0,22.18l89.71,40.79c.52.24,1.15.1,1.52-.37.43-.55.34-1.35-.21-1.78L13.47,0,0,22.18Z" />
        </g>
    </g>
    <g id="center">
        <polygon class="cls-1"
            points="158 85.5 190.86 123.45 141.57 113.96 92.28 123.45 125.14 85.5 141.57 38.08 158 85.5" />
    </g>
</svg>