<?xml version="1.0" encoding="UTF-8"?>
<svg xmlns="http://www.w3.org/2000/svg" width="300" height="202.98" viewBox="0 0 300 202.98">
    <defs>
        <style>
            .cls-1 {
                mix-blend-mode: hard-light;
            }

            .cls-2 {
                isolation: isolate;
            }

            .cls-3 {
                fill: #8ceeee;
            }
        </style>
    </defs>
    <g class="cls-2">
        <g id="Layer_1" data-name="Layer 1">
            <g id="tile18" class="cls-1">
                <polygon class="cls-3"
                    points="124.04 202.98 41.67 202.98 0 101.49 41.67 0 124.04 0 124.04 12.85 50.28 12.85 13.89 101.49 50.28 190.13 124.04 190.13 124.04 202.98" />
                <polygon class="cls-3"
                    points="106.91 143.55 79.9 143.55 79.9 135.84 101.26 135.84 112.13 101.49 101.26 67.14 79.9 67.14 79.9 59.43 106.91 59.43 120.22 101.49 106.91 143.55" />
                <path class="cls-3"
                    d="m153.37,97.6l2.25,3.89-2.25,3.89h-4.49l-2.25-3.89,2.25-3.89h4.49m7.91-13.7h-20.31l-10.16,17.59,10.16,17.59h20.31l10.16-17.59-10.16-17.59h0Z" />
                <polygon class="cls-3"
                    points="258.33 202.98 175.96 202.98 175.96 190.13 249.72 190.13 286.11 101.49 249.72 12.85 175.96 12.85 175.96 0 258.33 0 300 101.49 258.33 202.98" />
                <polygon class="cls-3"
                    points="220.1 143.55 193.09 143.55 179.78 101.49 193.09 59.43 220.1 59.43 220.1 67.14 198.74 67.14 187.87 101.49 198.74 135.84 220.1 135.84 220.1 143.55" />
            </g>
        </g>
    </g>
</svg>