<?xml version="1.0" encoding="UTF-8"?>
<svg xmlns="http://www.w3.org/2000/svg" width="294.98" height="294.98" viewBox="0 0 294.98 294.98">
    <defs>
        <style>
            .cls-1 {
                mix-blend-mode: hard-light;
            }

            .cls-2 {
                isolation: isolate;
            }

            .cls-3 {
                fill: #8ceeee;
            }
        </style>
    </defs>
    <g class="cls-2">
        <g id="frame">
            <g id="tile1" class="cls-1">
                <g>
                    <rect class="cls-3" x="283.73" y="283.73" width="11.25" height="11.25" />
                    <path class="cls-3"
                        d="m246.91,294.98h-10.31v-11.25h10.31v11.25Zm-47.13,0h-10.31v-11.25h10.31v11.25Zm-47.13,0h-10.31v-11.25h10.31v11.25Zm-47.13,0h-10.31v-11.25h10.31v11.25Zm-47.13,0h-10.31v-11.25h10.31v11.25Z" />
                    <rect class="cls-3" y="283.73" width="11.25" height="11.25" />
                    <path class="cls-3"
                        d="m11.25,246.91H0v-10.31h11.25v10.31Zm0-47.13H0v-10.31h11.25v10.31Zm0-47.13H0v-10.31h11.25v10.31Zm0-47.13H0v-10.31h11.25v10.31Zm0-47.13H0v-10.31h11.25v10.31Z" />
                    <rect class="cls-3" width="11.25" height="11.25" />
                    <path class="cls-3"
                        d="m246.91,11.25h-10.31V0h10.31v11.25Zm-47.13,0h-10.31V0h10.31v11.25Zm-47.13,0h-10.31V0h10.31v11.25Zm-47.13,0h-10.31V0h10.31v11.25Zm-47.13,0h-10.31V0h10.31v11.25Z" />
                    <rect class="cls-3" x="283.73" width="11.25" height="11.25" />
                    <path class="cls-3"
                        d="m294.98,246.91h-11.25v-10.31h11.25v10.31Zm0-47.13h-11.25v-10.31h11.25v10.31Zm0-47.13h-11.25v-10.31h11.25v10.31Zm0-47.13h-11.25v-10.31h11.25v10.31Zm0-47.13h-11.25v-10.31h11.25v10.31Z" />
                </g>
            </g>
        </g>
        <g id="corners">
            <g>
                <polygon class="cls-3"
                    points="245.06 245.05 192.1 245.05 192.1 262.74 262.74 262.74 262.74 157.13 245.06 157.13 245.06 245.05" />
                <polygon class="cls-3"
                    points="245.06 137.85 262.74 137.85 262.74 32.25 192.1 32.25 192.1 49.93 245.06 49.93 245.06 137.85" />
                <polygon class="cls-3"
                    points="49.93 157.13 32.25 157.13 32.25 262.74 102.88 262.74 102.88 245.05 49.93 245.05 49.93 157.13" />
                <polygon class="cls-3"
                    points="49.93 49.93 102.88 49.93 102.88 32.25 32.25 32.25 32.25 137.85 49.93 137.85 49.93 49.93" />
            </g>
        </g>
        <g id="lines">
            <g>
                <g>
                    <path class="cls-3"
                        d="m146.87,101.97c-1.11,0-2.01-.9-2.01-2.01v-29.11c0-1.11.9-2.01,2.01-2.01s2.01.9,2.01,2.01v29.11c0,1.11-.9,2.01-2.01,2.01Z" />
                    <path class="cls-3"
                        d="m146.87,226.13c-1.11,0-2.01-.9-2.01-2.01v-29.11c0-1.11.9-2.01,2.01-2.01s2.01.9,2.01,2.01v29.11c0,1.11-.9,2.01-2.01,2.01Z" />
                </g>
                <g>
                    <path class="cls-3"
                        d="m224.12,149.91h-29.11c-1.11,0-2.01-.9-2.01-2.01s.9-2.01,2.01-2.01h29.11c1.11,0,2.01.9,2.01,2.01s-.9,2.01-2.01,2.01Z" />
                    <path class="cls-3"
                        d="m99.96,149.91h-29.11c-1.11,0-2.01-.9-2.01-2.01s.9-2.01,2.01-2.01h29.11c1.11,0,2.01.9,2.01,2.01s-.9,2.01-2.01,2.01Z" />
                </g>
            </g>
        </g>
        <g id="center">
            <path class="cls-3"
                d="m149.6,143.84l2.11,3.65-2.11,3.65h-4.21l-2.11-3.65,2.11-3.65h4.21m7.42-12.86h-19.06l-9.53,16.51,9.53,16.51h19.06l9.53-16.51-9.53-16.51h0Z" />
        </g>
    </g>
</svg>