<?xml version="1.0" encoding="UTF-8"?>
<svg xmlns="http://www.w3.org/2000/svg" width="300" height="270.01" viewBox="0 0 300 270.01">
    <defs>
        <style>
            .cls-1 {
                fill: #8ceeee;
            }
        </style>
    </defs>
    <g id="lines">
        <g id="Layer_6" data-name="Layer 6">
            <g>
                <path class="cls-1"
                    d="m138.84.69l10.06,84.01c.06.49.44.89.95.95.6.07,1.14-.35,1.21-.95L161.12.69h-22.28Z" />
                <path class="cls-1"
                    d="m161.12,269.32l-10.06-84.01c-.06-.49-.44-.89-.95-.95-.6-.07-1.14.35-1.21.95l-10.06,84.01h22.28Z" />
            </g>
        </g>
        <g id="Layer_5" data-name="Layer 5">
            <g>
                <path class="cls-1"
                    d="m261.6,59.46l-68.29,49.96c-.4.29-.56.82-.36,1.29.23.55.87.82,1.42.59l78.15-32.42-10.92-19.42Z" />
                <path class="cls-1"
                    d="m38.4,210.58l68.29-49.96c.4-.29.56-.82.36-1.29-.23-.56-.87-.82-1.42-.59l-78.15,32.42,10.92,19.42Z" />
            </g>
        </g>
        <g id="Layer_4" data-name="Layer 4">
            <g>
                <path class="cls-1"
                    d="m270.57,195.26l-77.02-35.02c-.45-.2-.99-.08-1.31.32-.37.47-.29,1.16.18,1.53l66.58,52.22,11.57-19.04Z" />
                <path class="cls-1"
                    d="m29.43,74.83l77.02,35.02c.45.2.99.08,1.31-.32.37-.47.29-1.16-.18-1.53L41,55.79l-11.57,19.04Z" />
            </g>
        </g>
        <g id="Layer_1" data-name="Layer 1">
            <g id="Layer_7" data-name="Layer 7">
                <g>
                    <polygon class="cls-1" points="71.41 18.97 66.26 10.03 0 124.8 10.31 124.8 71.41 18.97" />
                    <polygon class="cls-1" points="289.69 124.8 300 124.8 234.15 10.75 228.97 19.64 289.69 124.8" />
                    <polygon class="cls-1" points="211.6 8.93 216.79 0 84.04 0 89.18 8.93 211.6 8.93" />
                    <polygon class="cls-1"
                        points="289.69 145.21 228.59 251.04 233.74 259.98 300 145.21 289.69 145.21" />
                    <polygon class="cls-1" points="88.4 261.08 83.21 270.01 215.96 270.01 210.82 261.08 88.4 261.08" />
                    <polygon class="cls-1" points="10.31 145.21 0 145.21 65.85 259.26 71.03 250.37 10.31 145.21" />
                </g>
            </g>
        </g>
    </g>
    <g id="center">
        <path class="cls-1"
            d="m152.54,130.61l2.54,4.39-2.54,4.39h-5.07l-2.54-4.39,2.54-4.39h5.07m8.94-15.48h-22.94l-11.47,19.87,11.47,19.87h22.94l11.47-19.87-11.47-19.87h0Z" />
    </g>
</svg>