<?xml version="1.0" encoding="UTF-8"?>
<svg xmlns="http://www.w3.org/2000/svg" width="300" height="270.78" viewBox="0 0 300 270.78">
    <defs>
        <style>
            .cls-1 {
                mix-blend-mode: hard-light;
            }

            .cls-2 {
                opacity: .5;
            }

            .cls-2,
            .cls-3 {
                fill: #8ceeee;

            }

            .cls-4 {
                isolation: isolate;
            }
        </style>
    </defs>
    <g class="cls-4">
        <g id="Layer_1" data-name="Layer 1">
            <g id="tile11" class="cls-1">
                <g>
                    <path class="cls-3"
                        d="m150,270.78l-50-144.34L0,10.97l150,28.87,150-28.87-100,115.47-50,144.34ZM33.88,30.53l77.42,89.39,38.71,111.74,38.71-111.74,77.42-89.39-116.12,22.35L33.88,30.53Z" />
                    <polygon class="cls-3"
                        points="134.81 106.35 104.41 71.26 150 80.03 195.59 71.26 165.2 106.35 150 150.21 134.81 106.35" />
                </g>
                <g>
                    <polygon class="cls-2"
                        points="267.48 89.25 260.99 78.01 214.24 131.99 212.7 133.77 211.93 136 187.22 207.32 200.2 207.32 223.51 140.02 267.48 89.25" />
                    <polygon class="cls-2"
                        points="147.68 24.73 150 25.18 152.32 24.73 222.43 11.24 215.94 0 150 12.69 84.06 0 77.57 11.24 147.68 24.73" />
                    <polygon class="cls-2"
                        points="88.08 136 87.3 133.77 85.76 131.99 39.02 78.02 32.53 89.25 76.49 140.02 99.8 207.32 112.78 207.32 88.08 136" />
                </g>
            </g>
        </g>
    </g>
</svg>