<?xml version="1.0" encoding="UTF-8"?>
<svg xmlns="http://www.w3.org/2000/svg" width="281.79" height="281.79" viewBox="0 0 281.79 281.79">
    <defs>
        <style>
            .cls-1 {
                mix-blend-mode: hard-light;
            }

            .cls-2 {
                opacity: .5;
            }

            .cls-2,
            .cls-3 {
                fill: #8ceeee;

            }

            .cls-4 {
                opacity: .35;
            }

            .cls-5 {
                opacity: .8;
            }

            .cls-6 {
                isolation: isolate;
            }
        </style>
    </defs>
    <g class="cls-6">
        <g id="Layer_1" data-name="Layer 1">
            <g id="tile14" class="cls-1">
                <g class="cls-4">
                    <path class="cls-3"
                        d="m140.9,66.17c4.95,0,9.9.48,14.71,1.44l10.01-50.36c-8.09-1.61-16.41-2.42-24.71-2.42-26.71,0-52.24,8.25-73.83,23.87l30.09,41.6c12.77-9.24,27.9-14.13,43.74-14.13Z" />
                </g>
                <path class="cls-3"
                    d="m37.75,213.39l41.98-29.55c-8.88-12.61-13.57-27.46-13.57-42.95,0-18.85,7.04-36.85,19.81-50.68l-37.72-34.83c-21.56,23.35-33.43,53.72-33.43,85.51,0,26.12,7.93,51.19,22.92,72.5Z" />
                <path class="cls-3"
                    d="m86.01,191.61l-37.69,34.86c12.73,13.76,28.63,24.69,45.98,31.59l18.99-47.69c-10.28-4.09-19.71-10.58-27.28-18.76Z" />
                <path class="cls-3"
                    d="m140.9,266.96c32.58,0,63.49-12.39,87.05-34.87l-35.45-37.13c-13.96,13.33-32.28,20.67-51.59,20.67-6.3,0-12.53-.78-18.54-2.31l-12.7,49.74c10.15,2.59,20.66,3.91,31.24,3.91Z" />
                <g class="cls-5">
                    <path class="cls-3"
                        d="m266.96,140.9c0-5.63-.38-11.28-1.11-16.82l-50.89,6.8c.44,3.29.66,6.66.66,10.02,0,17.56-5.89,33.98-17.03,47.49l39.61,32.66c18.54-22.49,28.76-50.96,28.76-80.15Z" />
                </g>
                <path class="cls-2"
                    d="m211.81,117.26l48.7-16.23c-11.61-34.83-37.76-62.82-71.75-76.78l-19.51,47.49c20.16,8.28,35.67,24.87,42.55,45.52Z" />
                <path class="cls-3"
                    d="m133.6,3.62l-.18-3.42c-5.83.3-11.7.97-17.43,2l.6,3.37c5.59-1,11.31-1.65,17-1.95Z" />
                <path class="cls-3"
                    d="m157.54,4.42l.41-3.4c-5.63-.68-11.37-1.02-17.06-1.02h-.45v3.42h.45c5.55,0,11.15.33,16.65,1Z" />
                <path class="cls-3"
                    d="m109.89,6.94l-.77-3.34c-5.67,1.3-11.33,2.99-16.82,5l1.18,3.22c5.36-1.97,10.87-3.61,16.41-4.88Z" />
                <path class="cls-3"
                    d="m47.15,40.35l-2.33-2.51c-4.25,3.96-8.31,8.25-12.07,12.74l2.63,2.19c3.66-4.38,7.62-8.56,11.77-12.42Z" />
                <path class="cls-3"
                    d="m87.13,14.34l-1.34-3.15c-5.35,2.28-10.63,4.92-15.67,7.86l1.72,2.96c4.92-2.87,10.07-5.45,15.29-7.67Z" />
                <path class="cls-3"
                    d="m66.01,25.6l-1.86-2.87c-4.88,3.17-9.62,6.69-14.08,10.46l2.21,2.61c4.35-3.67,8.97-7.11,13.74-10.2Z" />
                <path class="cls-3"
                    d="m270.55,85.65c-2.28-5.35-4.93-10.63-7.88-15.67l-2.95,1.72c2.87,4.92,5.45,10.06,7.68,15.28l3.15-1.34Z" />
                <path class="cls-3"
                    d="m258.99,64.02c-3.18-4.88-6.71-9.61-10.48-14.07l-2.61,2.21c3.68,4.35,7.12,8.96,10.22,13.73l2.87-1.87Z" />
                <path class="cls-3"
                    d="m31.11,58.14l-2.73-2.06c-3.52,4.67-6.78,9.59-9.68,14.64l2.97,1.7c2.83-4.92,6.01-9.73,9.45-14.28Z" />
                <path class="cls-3"
                    d="m274.83,109.75l3.34-.78c-1.32-5.68-3.01-11.33-5.03-16.81l-3.21,1.18c1.97,5.35,3.62,10.87,4.9,16.4Z" />
                <path class="cls-3"
                    d="m278.17,133.46l3.42-.18c-.31-5.84-.99-11.7-2.02-17.42l-3.37.6c1,5.59,1.66,11.31,1.97,17Z" />
                <path class="cls-3"
                    d="m181.97,6.08c-5.58-1.7-11.32-3.06-17.07-4.05l-.58,3.38c5.61.96,11.21,2.29,16.65,3.95l1-3.28Z" />
                <path class="cls-3"
                    d="m241.35,47.04l2.5-2.34c-3.98-4.26-8.27-8.31-12.75-12.05l-2.19,2.63c4.37,3.65,8.56,7.6,12.44,11.76Z" />
                <path class="cls-3"
                    d="m204.76,15.27c-5.19-2.65-10.61-4.99-16.11-6.98l-1.16,3.22c5.36,1.93,10.65,4.22,15.71,6.8l1.55-3.05Z" />
                <path class="cls-3"
                    d="m225.59,28.29c-4.67-3.51-9.59-6.76-14.65-9.67l-1.7,2.97c4.93,2.83,9.74,6,14.29,9.43l2.06-2.73Z" />
                <path class="cls-3"
                    d="m18.39,78.45l-3.05-1.56c-2.65,5.2-5.01,10.62-6.99,16.1l3.22,1.16c1.94-5.35,4.23-10.64,6.82-15.71Z" />
                <path class="cls-3"
                    d="m123.96,277.34l-.42,3.4c5.71.7,11.55,1.06,17.36,1.06h.15l-.15-3.42c-5.67,0-11.37-.35-16.94-1.03Z" />
                <path class="cls-3"
                    d="m194.39,267.57l1.33,3.15c5.37-2.27,10.65-4.91,15.69-7.82l-1.71-2.96c-4.92,2.85-10.07,5.41-15.31,7.64Z" />
                <path class="cls-3"
                    d="m234.43,241.64l2.33,2.51c4.27-3.97,8.34-8.25,12.09-12.71l-2.62-2.2c-3.66,4.35-7.63,8.53-11.8,12.4Z" />
                <path class="cls-3"
                    d="m171.62,274.93l.76,3.34c5.69-1.3,11.35-2.97,16.83-4.97l-1.17-3.22c-5.34,1.95-10.87,3.58-16.42,4.85Z" />
                <path class="cls-3"
                    d="m147.9,278.19l.17,3.42c5.84-.29,11.71-.95,17.43-1.96l-.59-3.37c-5.58.98-11.31,1.63-17.01,1.91Z" />
                <path class="cls-3"
                    d="m215.53,256.36l1.86,2.87c4.9-3.18,9.64-6.68,14.1-10.43l-2.2-2.62c-4.35,3.66-8.98,7.08-13.76,10.18Z" />
                <path class="cls-3"
                    d="m272.3,181.39l3.27,1.01c1.71-5.56,3.09-11.3,4.1-17.06l-3.37-.59c-.98,5.62-2.33,11.22-4,16.64Z" />
                <path class="cls-3"
                    d="m9.4,100.67l-3.27-1c-1.7,5.57-3.07,11.31-4.06,17.07l3.37.58c.97-5.62,2.3-11.22,3.96-16.65Z" />
                <path class="cls-3"
                    d="m263.27,203.6l3.04,1.56c2.67-5.2,5.03-10.62,7.02-16.09l-3.22-1.17c-1.94,5.34-4.25,10.62-6.85,15.7Z" />
                <path class="cls-3"
                    d="m250.5,223.89l2.73,2.07c3.53-4.65,6.8-9.57,9.71-14.61l-2.96-1.71c-2.85,4.92-6.04,9.72-9.48,14.26Z" />
                <path class="cls-3"
                    d="m40.25,234.54l-2.5,2.33c3.98,4.27,8.26,8.34,12.72,12.08l2.2-2.63c-4.35-3.65-8.53-7.61-12.42-11.78Z" />
                <path class="cls-3"
                    d="m11.13,195.86c2.27,5.35,4.91,10.63,7.84,15.68l2.96-1.72c-2.86-4.93-5.43-10.07-7.65-15.3l-3.15,1.34Z" />
                <path class="cls-3"
                    d="m6.9,171.76l-3.34.77c1.31,5.69,2.99,11.35,4.99,16.82l3.22-1.18c-1.96-5.34-3.59-10.86-4.87-16.41Z" />
                <path class="cls-3"
                    d="m3.61,148.04l-3.42.17c.3,5.83.96,11.69,1.98,17.43l3.37-.6c-.99-5.6-1.64-11.32-1.93-17.01Z" />
                <path class="cls-3"
                    d="m4.44,124.1l-3.4-.41C.35,129.36,0,135.15,0,140.87v.33s3.42-.3,3.42-.3c0-5.61.34-11.26,1.01-16.8Z" />
                <path class="cls-3"
                    d="m99.53,275.62c5.56,1.71,11.3,3.08,17.06,4.08l.58-3.37c-5.62-.98-11.22-2.32-16.65-3.98l-1,3.27Z" />
                <path class="cls-3"
                    d="m55.96,253.32c4.66,3.52,9.58,6.78,14.63,9.7l1.71-2.96c-4.92-2.84-9.72-6.03-14.27-9.46l-2.07,2.73Z" />
                <path class="cls-3"
                    d="m76.76,266.38c5.2,2.66,10.61,5.02,16.09,7.01l1.17-3.22c-5.35-1.94-10.63-4.24-15.7-6.84l-1.56,3.05Z" />
                <path class="cls-3"
                    d="m22.64,217.52c3.18,4.89,6.69,9.63,10.45,14.09l2.62-2.21c-3.66-4.35-7.09-8.97-10.19-13.75l-2.87,1.87Z" />
                <path class="cls-3"
                    d="m278.37,140.3v.6c0,5.71-.35,11.46-1.05,17.09l3.4.42c.71-5.77,1.08-11.65,1.08-17.51v-.6h-3.42Z" />
                <path class="cls-3"
                    d="m83.85,140.9c0,31.45,25.59,57.04,57.04,57.04s57.04-25.59,57.04-57.04-25.59-57.04-57.04-57.04c-7.8,0-15.36,1.55-22.48,4.6l2.7,6.29-1.35-3.15c-16.95,7.27-29.17,23.1-31.9,41.29l3.38.51-6.77-1.01c-.42,2.79-.63,5.66-.63,8.51Zm38.61-43.01l1.35,3.14c5.4-2.32,11.15-3.49,17.08-3.49,23.9,0,43.35,19.45,43.35,43.35s-19.45,43.35-43.35,43.35-43.35-19.45-43.35-43.35c0-2.17.16-4.36.48-6.48l-3.39-.51c2.38-15.87,13.04-29.67,27.83-36.02Z" />
            </g>
        </g>
    </g>
</svg>