<?xml version="1.0" encoding="UTF-8"?>
<svg xmlns="http://www.w3.org/2000/svg" width="300" height="270.01" viewBox="0 0 300 270.01">
    <defs>
        <style>
            .cls-1 {
                fill: #8ceeee;
            }
        </style>
    </defs>
    <g id="right-left">
        <path class="cls-1"
            d="m89.15,49.28l20.41,35.31-23.47,40.65h-40.79l43.85-75.95m0-12.39l-54.58,94.54h55.1l27.05-46.85-27.57-47.69h0Z" />
        <path class="cls-1"
            d="m254.7,144.78l-43.85,75.95-20.41-35.31,23.47-40.65h40.79m10.73-6.2h-55.1l-27.05,46.85,27.57,47.69,54.58-94.54h0Z" />
    </g>
    <g id="left-right">
        <path class="cls-1"
            d="m86.09,144.78l23.47,40.65-20.41,35.31-43.85-75.95h40.79m3.58-6.2h-55.1l54.58,94.54,27.57-47.69-27.05-46.85h0Z" />
        <path class="cls-1"
            d="m210.85,49.28l43.85,75.95h-40.79l-23.47-40.65,20.41-35.31m0-12.39l-27.57,47.69,27.05,46.85h55.1l-54.58-94.54h0Z" />
    </g>
    <g id="top-bottom">
        <path class="cls-1"
            d="m193.95,39.44l-20.42,35.33h-47.06l-20.42-35.33h87.9m10.74-6.2h-109.38l27.59,47.72h54.21l27.59-47.72h0Z" />
        <path class="cls-1"
            d="m173.53,195.24l20.42,35.33h-87.9l20.42-35.33h47.06m3.58-6.2h-54.21l-27.59,47.72h109.38l-27.59-47.72h0Z" />
    </g>
    <g id="center">
        <path class="cls-1"
            d="m173.78,176.19h-47.56l-23.78-41.19,23.78-41.19h47.56l23.78,41.19-23.78,41.19Zm-42.96-7.97h38.36l19.18-33.22-19.18-33.22h-38.36l-19.18,33.22,19.18,33.22Z" />
    </g>
    <g id="outer-frame">
        <g>
            <polygon class="cls-1" points="71.41 18.97 66.26 10.03 0 124.8 10.31 124.8 71.41 18.97" />
            <polygon class="cls-1" points="289.69 124.8 300 124.8 234.15 10.75 228.97 19.64 289.69 124.8" />
            <polygon class="cls-1" points="211.6 8.93 216.79 0 84.04 0 89.18 8.93 211.6 8.93" />
            <polygon class="cls-1" points="289.69 145.21 228.59 251.04 233.74 259.98 300 145.21 289.69 145.21" />
            <polygon class="cls-1" points="88.4 261.08 83.21 270.01 215.96 270.01 210.82 261.08 88.4 261.08" />
            <polygon class="cls-1" points="10.31 145.21 0 145.21 65.85 259.26 71.03 250.37 10.31 145.21" />
        </g>
    </g>
</svg>