<?xml version="1.0" encoding="UTF-8"?>
<svg xmlns="http://www.w3.org/2000/svg" width="379.87" height="225.87" viewBox="0 0 379.87 225.87">
    <defs>
        <style>
            .cls-1 {
                mix-blend-mode: hard-light;
            }

            .cls-2 {
                isolation: isolate;
            }

            .cls-3 {
                fill: #8ceeee;
            }
        </style>
    </defs>
    <g class="cls-2">
        <g id="Layer_1" data-name="Layer 1">
            <g id="tile7" class="cls-1">
                <path class="cls-3"
                    d="m219.73,106.09c-3.12-13.57-15.29-23.73-29.79-23.73s-26.67,10.16-29.79,23.73H0v13.69h160.15c3.12,13.57,15.29,23.73,29.79,23.73s26.67-10.16,29.79-23.73h160.15v-13.69h-160.15Zm-14.37,13.69c-2.63,5.91-8.55,10.04-15.42,10.04s-12.79-4.13-15.42-10.04c-.93-2.09-1.46-4.41-1.46-6.84s.53-4.75,1.46-6.84c2.63-5.91,8.55-10.04,15.42-10.04s12.79,4.13,15.42,10.04c.93,2.09,1.46,4.41,1.46,6.84s-.53,4.75-1.46,6.84Z" />
                <path class="cls-3"
                    d="m127.65,50.65h40.82V0h-91.47v91.47h50.65v-40.82Zm-13.69,27.13h-23.27V13.69h64.09v23.27h-40.82v40.82Z" />
                <path class="cls-3"
                    d="m252.22,91.47h50.65V0h-91.47v50.65h40.82v40.82Zm-27.13-54.51V13.69h64.09v64.09h-23.27v-40.82h-40.82Z" />
                <path class="cls-3"
                    d="m252.22,175.22h-40.82v50.65h91.47v-91.47h-50.65v40.82Zm13.69-27.13h23.27v64.09h-64.09v-23.27h40.82v-40.82Z" />
                <path class="cls-3"
                    d="m127.65,134.4h-50.65v91.47h91.47v-50.65h-40.82v-40.82Zm27.13,54.51v23.27h-64.09v-64.09h23.27v40.82h40.82Z" />
                <rect class="cls-3" x="183.09" y="156.29" width="13.69" height="28.28" />
                <rect class="cls-3" x="183.09" y="41.3" width="13.69" height="28.28" />
            </g>
        </g>
    </g>
</svg>