<?xml version="1.0" encoding="UTF-8"?>
<svg xmlns="http://www.w3.org/2000/svg" width="300" height="202.98" viewBox="0 0 300 202.98">
    <defs>
        <style>
            .cls-1 {
                mix-blend-mode: hard-light;
            }

            .cls-2 {
                isolation: isolate;
            }

            .cls-3 {
                fill: #8ceeee;
            }
        </style>
    </defs>
    <g class="cls-2">
        <g id="Layer_1" data-name="Layer 1">
            <g id="tile16" class="cls-1">
                <g>
                    <polygon class="cls-3"
                        points="214.58 101.49 225.62 90.44 225.62 80.41 204.55 101.49 225.62 122.57 225.62 112.53 214.58 101.49" />
                    <polygon class="cls-3"
                        points="85.42 101.49 74.38 90.44 74.38 80.41 95.45 101.49 74.38 122.57 74.38 112.53 85.42 101.49" />
                    <polygon class="cls-3"
                        points="150 166.06 161.05 177.11 171.08 177.11 150 156.03 128.92 177.11 138.95 177.11 150 166.06" />
                    <polygon class="cls-3"
                        points="150 36.91 161.05 25.87 171.08 25.87 150 46.94 128.92 25.87 138.95 25.87 150 36.91" />
                </g>
                <g>
                    <polygon class="cls-3"
                        points="124.04 202.98 41.67 202.98 0 101.49 41.67 0 124.04 0 124.04 12.85 50.28 12.85 13.89 101.49 50.28 190.13 124.04 190.13 124.04 202.98" />
                    <polygon class="cls-3"
                        points="258.33 202.98 175.96 202.98 175.96 190.13 249.72 190.13 286.11 101.49 249.72 12.85 175.96 12.85 175.96 0 258.33 0 300 101.49 258.33 202.98" />
                </g>
                <path class="cls-3"
                    d="m152.25,97.6l2.25,3.89-2.25,3.89h-4.49l-2.25-3.89,2.25-3.89h4.49m7.91-13.7h-20.31l-10.16,17.59,10.16,17.59h20.31l10.16-17.59-10.16-17.59h0Z" />
            </g>
        </g>
    </g>
</svg>