<?xml version="1.0" encoding="UTF-8"?>
<svg xmlns="http://www.w3.org/2000/svg" width="342.04" height="167.25" viewBox="0 0 342.04 167.25">
    <defs>
        <style>
            .cls-1 {
                mix-blend-mode: hard-light;
            }

            .cls-2 {
                isolation: isolate;
            }

            .cls-3 {
                fill: #8ceeee;
            }
        </style>
    </defs>
    <g class="cls-2">
        <g id="Layer_1" data-name="Layer 1">
            <g id="tile15" class="cls-1">
                <g>
                    <polygon class="cls-3"
                        points="46.19 167.25 0 167.25 0 143.14 32.27 143.14 66.63 83.62 32.27 24.11 0 24.11 0 0 46.19 0 94.47 83.62 46.19 167.25" />
                    <path class="cls-3"
                        d="m67.43,96.04l93.43-11.19c.54-.07.99-.49,1.06-1.06.08-.66-.39-1.27-1.06-1.34l-93.43-11.19v24.78Z" />
                </g>
                <g>
                    <polygon class="cls-3"
                        points="295.85 0 342.04 0 342.04 24.11 309.77 24.11 275.41 83.62 309.77 143.14 342.04 143.14 342.04 167.25 295.85 167.25 247.57 83.62 295.85 0" />
                    <path class="cls-3"
                        d="m274.61,71.21l-93.43,11.19c-.54.07-.99.49-1.06,1.06-.08.66.39,1.27,1.06,1.34l93.43,11.19v-24.78Z" />
                </g>
            </g>
        </g>
    </g>
</svg>