<?xml version="1.0" encoding="UTF-8"?>
<svg xmlns="http://www.w3.org/2000/svg" width="350" height="197.22" viewBox="0 0 350 197.22">
    <defs>
        <style>
            .cls-1 {
                mix-blend-mode: hard-light;
            }

            .cls-2 {
                isolation: isolate;
            }

            .cls-3 {
                fill: #8ceeee;
            }
        </style>
    </defs>
    <g class="cls-2">
        <g id="Layer_1" data-name="Layer 1">
            <g id="tile6" class="cls-1">
                <g>
                    <path class="cls-3"
                        d="m175,86.41c6.69,0,12.13,5.47,12.13,12.2s-5.44,12.2-12.13,12.2-12.13-5.47-12.13-12.2,5.44-12.2,12.13-12.2m0-5.47c-9.72,0-17.6,7.91-17.6,17.67s7.88,17.67,17.6,17.67,17.6-7.91,17.6-17.67-7.88-17.67-17.6-17.67h0Z" />
                    <g>
                        <path class="cls-3"
                            d="m183.03,5.78c14.4,1.24,28.22,5.83,40.52,13.45l-7.03,7.06c-10.28-5.96-21.7-9.64-33.49-10.78V5.78m-5.47-5.78v20.62c14.64.48,28.25,5.05,39.77,12.59l14.78-14.83C216.66,7.26,197.87.53,177.57,0h0Z" />
                        <path class="cls-3"
                            d="m166.97,5.78v9.72c-11.79,1.15-23.21,4.82-33.49,10.78l-7.03-7.06c12.3-7.62,26.12-12.21,40.52-13.45m5.47-5.78c-20.3.53-39.09,7.26-54.55,18.38l14.78,14.83c11.52-7.54,25.14-12.11,39.77-12.59V0h0Z" />
                        <path class="cls-3"
                            d="m216.52,170.93l7.03,7.06c-12.3,7.62-26.12,12.21-40.52,13.45v-9.72c11.79-1.15,23.21-4.82,33.49-10.79m.82-6.92c-11.52,7.54-25.14,12.11-39.77,12.59v20.62c20.3-.53,39.09-7.26,54.55-18.38l-14.78-14.83h0Z" />
                        <path class="cls-3"
                            d="m133.48,170.93c10.28,5.96,21.7,9.64,33.49,10.78v9.72c-14.4-1.24-28.22-5.83-40.52-13.45l7.03-7.06m-.82-6.92l-14.78,14.83c15.46,11.12,34.25,17.86,54.55,18.38v-20.62c-14.64-.48-28.25-5.05-39.77-12.59h0Z" />
                        <path class="cls-3"
                            d="m181.97,44.59c4.84.62,9.53,1.9,14.02,3.81l-9.18,9.22c-1.6-.47-3.21-.84-4.84-1.11v-11.91m-4.4-4.81v20.64c3.65.24,7.15,1.02,10.44,2.23l15.44-15.5c-7.73-4.33-16.52-6.96-25.88-7.37h0Z" />
                        <path class="cls-3"
                            d="m225.03,77.54c1.9,4.51,3.17,9.21,3.79,14.07h-11.87c-.27-1.63-.64-3.25-1.11-4.86l9.18-9.22m1.24-7.49l-15.44,15.5c1.2,3.31,1.98,6.82,2.22,10.48h20.57c-.41-9.4-3.03-18.22-7.34-25.98h0Z" />
                        <path class="cls-3"
                            d="m124.97,77.54l9.18,9.22c-.46,1.6-.83,3.22-1.11,4.86h-11.87c.62-4.86,1.89-9.56,3.79-14.07m-1.24-7.49c-4.31,7.76-6.94,16.58-7.34,25.98h20.57c.24-3.66,1.02-7.17,2.22-10.48l-15.44-15.5h0Z" />
                        <path class="cls-3"
                            d="m168.03,44.59v11.91c-1.63.27-3.24.65-4.84,1.11l-9.18-9.22c4.49-1.91,9.18-3.18,14.02-3.81m4.4-4.81c-9.36.41-18.15,3.04-25.88,7.37l15.44,15.5c3.29-1.21,6.79-1.98,10.44-2.23v-20.64h0Z" />
                        <path class="cls-3"
                            d="m186.81,139.6l9.18,9.22c-4.49,1.91-9.18,3.18-14.02,3.81v-11.91c1.63-.27,3.24-.65,4.84-1.11m1.2-5.04c-3.29,1.21-6.79,1.98-10.44,2.23v20.64c9.36-.41,18.16-3.04,25.88-7.37l-15.44-15.5h0Z" />
                        <path class="cls-3"
                            d="m228.82,105.6c-.62,4.86-1.89,9.57-3.79,14.07l-9.18-9.22c.46-1.6.83-3.22,1.11-4.86h11.87m4.79-4.42h-20.57c-.24,3.66-1.02,7.17-2.22,10.48l15.44,15.5c4.31-7.76,6.94-16.58,7.34-25.98h0Z" />
                        <path class="cls-3"
                            d="m133.05,105.6c.27,1.63.64,3.26,1.11,4.86l-9.18,9.22c-1.9-4.51-3.17-9.21-3.79-14.07h11.87m3.91-4.42h-20.57c.41,9.4,3.03,18.22,7.34,25.98l15.44-15.5c-1.2-3.31-1.98-6.82-2.22-10.48h0Z" />
                        <path class="cls-3"
                            d="m163.19,139.6c1.6.47,3.21.84,4.84,1.11v11.91c-4.84-.62-9.53-1.9-14.02-3.81l9.18-9.22m-1.2-5.04l-15.44,15.5c7.73,4.33,16.52,6.96,25.88,7.37v-20.64c-3.65-.24-7.14-1.02-10.44-2.23h0Z" />
                    </g>
                </g>
                <g>
                    <path class="cls-3"
                        d="m95.92,49.89l7.02,7.04c-5.75,10-9.42,21.19-10.65,32.63l-.03.29v17.51l.03.29c1.24,11.44,4.9,22.64,10.65,32.63l-7.02,7.04c-7.23-11.8-11.77-25.12-13.22-38.89l-.46-4.34-4.33-.52-41.38-4.97,41.38-4.97,4.33-.52.46-4.34c1.45-13.77,5.99-27.09,13.22-38.89m-.85-8.6c-9.64,13.51-15.98,29.55-17.8,46.92L1.1,97.36c-.56.07-1.02.51-1.09,1.1-.08.69.41,1.31,1.09,1.4l76.17,9.15c1.82,17.37,8.16,33.41,17.8,46.92l14.78-14.83c-6.5-10-10.78-21.58-12.12-34.03v-16.92c1.35-12.45,5.63-24.03,12.12-34.03l-14.78-14.83h0Z" />
                    <path class="cls-3"
                        d="m254.08,49.89c7.23,11.8,11.77,25.12,13.22,38.89l.46,4.34,4.33.52,41.38,4.97-41.38,4.97-4.33.52-.46,4.34c-1.45,13.77-5.99,27.09-13.22,38.89l-7.02-7.04c5.75-9.99,9.42-21.19,10.65-32.63l.03-.29v-17.51l-.03-.29c-1.24-11.44-4.9-22.64-10.65-32.63l7.02-7.04m.85-8.6l-14.78,14.83c6.5,10,10.78,21.58,12.12,34.03v16.92c-1.35,12.45-5.62,24.03-12.12,34.03l14.78,14.83c9.64-13.51,15.98-29.55,17.8-46.92l76.16-9.15c.56-.07,1.02-.51,1.09-1.1.08-.69-.41-1.31-1.09-1.4l-76.16-9.15c-1.82-17.37-8.16-33.41-17.8-46.92h0Z" />
                </g>
            </g>
        </g>
    </g>
</svg>