<?xml version="1.0" encoding="UTF-8"?>
<svg xmlns="http://www.w3.org/2000/svg" width="380.1" height="257.47" viewBox="0 0 380.1 257.47">
    <defs>
        <style>
            .cls-1 {
                mix-blend-mode: hard-light;
            }

            .cls-2 {
                isolation: isolate;
            }

            .cls-3 {
                fill: #8ceeee;
            }
        </style>
    </defs>
    <g class="cls-2">
        <g id="Layer_1" data-name="Layer 1">
            <g id="tile9" class="cls-1">
                <path class="cls-3"
                    d="m230.73,40.68L190.05,0l-40.68,40.68v-22.01l-110.07,110.07,110.07,110.07v-22.01l40.68,40.68,40.68-40.68v22.01l110.07-110.07L230.73,18.66v22.01Zm13.69,13.69v-2.65l77.02,77.02-77.02,77.02v-25.16l51.86-51.86-51.86-51.86v-22.5Zm-108.74,148.74v2.65l-77.02-77.02,77.02-77.02v25.16l-51.86,51.86,51.86,51.86v22.5Zm54.37,35.01l-40.68-40.68v-22.5l-46.19-46.19,46.19-46.19v-22.5l40.68-40.68,40.68,40.68v22.5l46.19,46.19-46.19,46.19v22.5l-40.68,40.68Z" />
                <rect class="cls-3" x="183.2" y="172.09" width="13.69" height="28.28" />
                <rect class="cls-3" x="183.2" y="57.1" width="13.69" height="28.28" />
                <path class="cls-3"
                    d="m190.05,98.16c-16.86,0-30.57,13.71-30.57,30.57s13.71,30.57,30.57,30.57,30.57-13.71,30.57-30.57-13.71-30.57-30.57-30.57Zm0,47.46c-9.31,0-16.88-7.57-16.88-16.88s7.57-16.88,16.88-16.88,16.88,7.57,16.88,16.88-7.57,16.88-16.88,16.88Z" />
                <rect class="cls-3" y="121.89" width="28.28" height="13.69" />
                <rect class="cls-3" x="351.81" y="121.89" width="28.28" height="13.69" />
            </g>
        </g>
    </g>
</svg>