<?xml version="1.0" encoding="UTF-8"?>
<svg xmlns="http://www.w3.org/2000/svg" width="300" height="270.01" viewBox="0 0 300 270.01">
    <defs>
        <style>
            .cls-1 {
                mix-blend-mode: hard-light;
            }

            .cls-2 {
                isolation: isolate;
            }

            .cls-3 {
                fill: #8ceeee;
            }
        </style>
    </defs>
    <g class="cls-2">
        <g id="Layer_1" data-name="Layer 1">
            <g id="tile17" class="cls-1">
                <path class="cls-3"
                    d="m38.38,76.19l34.71,15.78c.77.35,1.71.14,2.26-.55.64-.82.5-2-.32-2.64l-30.23-23.71,26.62-46.1-5.15-8.94-28.57,49.48-7.49,12.97L0,124.8h10.31l28.07-48.61Z" />
                <polygon class="cls-3" points="211.6 8.93 216.79 0 84.04 0 89.18 8.93 211.6 8.93" />
                <polygon class="cls-3" points="228.59 251.04 233.74 259.98 300 145.21 289.69 145.21 228.59 251.04" />
                <path class="cls-3"
                    d="m154.78,261.08l-4.64-38.77c-.1-.84-.76-1.54-1.64-1.64-1.03-.12-1.97.61-2.09,1.64l-4.64,38.77h-53.36l-5.2,8.93h132.76l-5.14-8.93h-56.04Z" />
                <polygon class="cls-3" points="0 145.21 65.85 259.26 71.03 250.37 10.31 145.21 0 145.21" />
                <polygon class="cls-3"
                    points="239.87 137.12 220.01 117.25 179.35 138.37 158.23 179.04 178.09 198.9 184.32 192.67 169.02 177.37 185.88 144.9 218.34 128.04 233.65 143.34 239.87 137.12" />
                <polygon class="cls-3"
                    points="130.98 177.37 115.68 192.67 121.91 198.9 141.77 179.04 120.65 138.37 79.99 117.25 60.13 137.12 66.35 143.34 81.66 128.04 114.12 144.9 130.98 177.37" />
                <polygon class="cls-3"
                    points="106.31 74.53 106.31 102.62 150 116.45 193.69 102.62 193.69 74.53 184.88 74.53 184.88 96.17 150 107.21 115.12 96.17 115.12 74.53 106.31 74.53" />
                <path class="cls-3"
                    d="m224.96,94.47l38.09-15.8,26.64,46.14h10.31l-28.63-49.59-7.83-13.56-29.39-50.91-5.18,8.89,27.32,47.32-33.16,24.26c-.68.5-.96,1.42-.63,2.24.4.96,1.5,1.41,2.46,1.02Z" />
            </g>
        </g>
    </g>
</svg>