<?xml version="1.0" encoding="UTF-8"?>
<svg xmlns="http://www.w3.org/2000/svg" width="350" height="350" viewBox="0 0 350 350">
    <defs>
        <style>
            .cls-1 {
                mix-blend-mode: hard-light;
            }

            .cls-2 {
                isolation: isolate;
            }

            .cls-3 {
                fill: #8ceeee;

            }
        </style>
    </defs>
    <g class="cls-2">
        <g id="Layer_1" data-name="Layer 1">
            <g id="tile12" class="cls-1">
                <polygon class="cls-3"
                    points="189.99 171.99 219.97 206.61 175 197.96 130.03 206.61 160.01 171.99 175 128.72 189.99 171.99" />
                <path class="cls-3"
                    d="m348.9,173.76l-86.28-10.33c-5.18-39.5-36.55-70.87-76.04-76.06L176.24,1.1c-.07-.56-.51-1.02-1.09-1.09-.69-.08-1.31.41-1.39,1.09l-10.33,86.27c-39.5,5.19-70.86,36.56-76.04,76.06L1.1,173.76c-.56.07-1.02.51-1.09,1.09-.08.69.41,1.31,1.09,1.39l86.29,10.33c5.2,39.48,36.55,70.83,76.03,76.02l10.33,86.3c.07.56.51,1.02,1.09,1.09.69.08,1.31-.41,1.39-1.09l10.33-86.3c39.48-5.19,70.84-36.54,76.03-76.02l86.29-10.33c.56-.07,1.02-.51,1.09-1.09.08-.69-.41-1.31-1.09-1.39Zm-173.9,71.26c-38.62,0-70.04-31.42-70.04-70.04s31.42-70.04,70.04-70.04,70.04,31.42,70.04,70.04-31.42,70.04-70.04,70.04Z" />
            </g>
        </g>
    </g>
</svg>