<svg width="449" height="543" viewBox="0 0 449 543" fill="none" xmlns="http://www.w3.org/2000/svg">
    <path
        d="M110.25 469.41L113.925 456.88C114.66 454.395 117.04 454.22 118.44 454.22C119.84 454.22 122.22 454.395 122.955 456.88L126.63 469.41C126.665 469.585 126.875 470.005 127.015 470.005C127.12 470.005 127.295 469.935 127.47 469.27L131.53 454.5H139.58L133.595 474.205C132.335 478.37 130.76 479.28 127.575 479.28C123.865 479.28 122.675 477.67 121.905 475.045L118.79 464.405C118.685 464.23 118.615 463.775 118.44 463.775C118.265 463.775 118.195 464.23 118.09 464.405L114.975 475.045C114.205 477.67 113.015 479.28 109.305 479.28C106.19 479.28 104.545 478.335 103.285 474.205L97.3 454.5H105.35L109.41 469.27C109.585 469.935 109.76 470.005 109.865 470.005C110.005 470.005 110.215 469.585 110.25 469.41ZM137.495 479L146.56 457.195C147.33 455.375 148.38 454.22 152.16 454.22C154.47 454.22 156.64 454.465 157.76 457.195L166.825 479H158.495L156.57 473.96H147.75L145.825 479H137.495ZM151.845 462.165L149.64 468.36H154.68L152.475 462.165C152.405 461.92 152.3 461.64 152.16 461.64C152.02 461.64 151.915 461.92 151.845 462.165ZM167.87 479V458.35C167.87 455.9 169.27 454.5 171.72 454.5H185.545C191.145 454.5 192.545 457.58 192.545 462.83C192.545 466.33 191.985 471.545 187.085 471.545H186.035V471.685L193.035 479H183.515L178.79 472.63C177.985 471.545 177.11 470.705 177.11 469.305V468.78C177.11 466.68 178.545 466.015 180.645 466.015H181.835C183.935 466.015 184.635 465.35 184.635 463.25C184.635 461.15 183.935 460.59 181.835 460.59H177.32C176.27 460.59 175.78 461.08 175.78 462.13V479H167.87ZM222.227 454.5V474.905C222.227 475.78 222.052 479.28 216.907 479.28C215.052 479.28 213.092 479.035 211.587 476.865L202.732 464.37C202.557 464.125 202.312 463.775 202.067 463.775C201.962 463.775 201.577 463.775 201.577 464.475V479H195.487V458.56C195.487 455.375 198.147 454.22 200.982 454.22C202.277 454.22 204.657 454.36 206.162 456.495L215.087 469.095C215.262 469.34 215.472 469.69 215.752 469.69C216.137 469.69 216.137 469.27 216.137 469.095V454.5H222.227ZM233.646 479H225.736V454.5H233.646V479ZM263.892 454.5V474.905C263.892 475.78 263.717 479.28 258.572 479.28C256.717 479.28 254.757 479.035 253.252 476.865L244.397 464.37C244.222 464.125 243.977 463.775 243.732 463.775C243.627 463.775 243.242 463.775 243.242 464.475V479H237.152V458.56C237.152 455.375 239.812 454.22 242.647 454.22C243.942 454.22 246.322 454.36 247.827 456.495L256.752 469.095C256.927 469.34 257.137 469.69 257.417 469.69C257.802 469.69 257.802 469.27 257.802 469.095V454.5H263.892ZM290.641 460.59H280.071C276.221 460.59 274.821 461.85 274.821 466.75C274.821 471.65 276.221 472.91 280.071 472.91H281.751C282.801 472.91 283.291 472.42 283.291 471.37V466.05H291.201V475.15C291.201 477.6 289.801 479 287.351 479H277.411C269.361 479 266.701 475.15 266.701 466.75C266.701 458.35 269.361 454.5 277.411 454.5H290.641V460.59Z"
        fill="white" />
    <path
        d="M8.04 515H2.2C0.8 515 1.49012e-08 514.2 1.49012e-08 512.8V503.2C1.49012e-08 501.8 0.8 501 2.2 501H8.04C12.64 501 13.96 503.2 13.96 508C13.96 512.8 12.64 515 8.04 515ZM4.52 505.48V510.52C4.52 511.24 4.8 511.52 5.52 511.52H5.72C8.52 511.52 9.32 511 9.32 508C9.32 505.06 8.36 504.48 5.72 504.48H5.52C4.8 504.48 4.52 504.76 4.52 505.48ZM26.0464 515H19.1464C15.7464 515 15.0464 514.04 15.0464 509.64C15.0464 504.84 15.9464 504.28 20.7464 504.28C24.7464 504.28 26.4264 504.6 26.4264 508.6C26.4264 509.8 26.1464 510.96 24.7464 510.96H18.9664C18.9664 511.96 19.5064 512.28 20.9064 512.28H26.0464V515ZM18.9664 508.48H21.8664C22.5064 508.48 22.5064 508.02 22.5064 507.82C22.5064 507.06 21.3464 507 20.7464 507C19.7464 507 18.9664 507.16 18.9664 508.48ZM37.6902 515H31.7902C28.1902 515 27.3902 512.92 27.3902 509.72C27.3902 506.52 28.1902 504.4 31.7902 504.4H37.4702V507.2H33.5902C31.9902 507.2 31.3902 508.12 31.3902 509.72C31.3902 511.32 31.9902 512.2 33.5902 512.2H37.6902V515ZM38.6858 515V508.8C38.6858 505.4 40.4858 504.4 43.8858 504.4H46.4658V507.16H45.0058C43.2058 507.16 42.6058 508.16 42.6058 509.96V515H38.6858ZM60.5598 504.4L54.2398 518.42H50.3198L51.9798 515L46.9398 504.4H50.9398L53.7198 511.12L56.6398 504.4H60.5598ZM63.1123 504.4H67.7923C71.1923 504.4 72.1923 506.5 72.1923 509.7C72.1923 512.9 71.1923 515 67.7923 515H64.8323V518.4H60.9123V506.6C60.9123 505.2 61.7123 504.4 63.1123 504.4ZM64.8323 508.2V512.2H66.6323C68.0123 512.2 68.1923 510.72 68.1923 509.7C68.1923 508.42 68.0323 507.2 66.5523 507.2H65.8323C65.0323 507.2 64.8323 507.4 64.8323 508.2ZM81.1919 515H78.2519C76.0519 515 74.2519 514 74.2519 511.4V507.2H72.7519V504.4H74.2519V501H78.1719V504.4H81.1919V507.2H78.1719V509.6C78.1719 511.2 78.7719 512.2 80.5719 512.2H81.1919V515ZM82.0256 515V504.4H85.9456V515H82.0256ZM85.9456 503.54H82.0256V501H85.9456V503.54ZM93.3148 504.28C97.7148 504.28 99.4348 505.3 99.4348 509.7C99.4348 514.1 97.7148 515.12 93.3148 515.12C88.9148 515.12 87.1948 514.1 87.1948 509.7C87.1948 505.3 88.9148 504.28 93.3148 504.28ZM91.1948 509.7C91.1948 511.3 91.5148 512.32 93.3148 512.32C95.1148 512.32 95.4348 511.3 95.4348 509.7C95.4348 508.1 95.1148 507.08 93.3148 507.08C91.5148 507.08 91.1948 508.1 91.1948 509.7ZM100.678 515V506.6C100.678 505 101.478 504.4 102.878 504.4H107.798C110.398 504.4 111.998 505.8 111.998 508.4V515H108.078V509.4C108.078 507.8 107.478 507.2 105.878 507.2H105.398C104.798 507.2 104.598 507.4 104.598 508V515H100.678ZM122.998 515H119.078V507.2H117.498V504.4H119.078C119.278 500.84 122.758 500.84 125.958 500.84V503.28C124.158 503.28 122.998 503.28 122.998 504.4H125.958V507.2H122.998V515ZM127.036 504.4H134.076C136.276 504.4 137.676 505.8 137.676 508V512.8C137.676 514.2 136.876 515 135.476 515H128.916C126.916 515 126.316 513.84 126.316 511.64C126.316 509.64 126.916 508.36 128.916 508.36H133.756V508.16C133.756 507.46 133.296 507.12 132.556 507.12H127.036V504.4ZM133.756 510.84H130.976C130.576 510.84 130.236 511.16 130.236 511.64C130.236 512 130.476 512.4 130.936 512.4H132.956C133.556 512.4 133.756 512.2 133.756 511.6V510.84ZM139.194 515V504.4H143.114V515H139.194ZM143.114 503.54H139.194V501H143.114V503.54ZM144.643 515V501H148.563V515H144.643ZM160.812 515H153.912C150.512 515 149.812 514.04 149.812 509.64C149.812 504.84 150.712 504.28 155.512 504.28C159.512 504.28 161.192 504.6 161.192 508.6C161.192 509.8 160.912 510.96 159.512 510.96H153.732C153.732 511.96 154.272 512.28 155.672 512.28H160.812V515ZM153.732 508.48H156.632C157.272 508.48 157.272 508.02 157.272 507.82C157.272 507.06 156.112 507 155.512 507C154.512 507 153.732 507.16 153.732 508.48ZM171.236 515H166.556C163.156 515 162.156 512.9 162.156 509.7C162.156 506.5 163.156 504.4 166.556 504.4H169.516V501H173.436V512.8C173.436 514.2 172.636 515 171.236 515ZM169.516 511.2V507.2H167.716C166.336 507.2 166.156 508.68 166.156 509.7C166.156 510.98 166.316 512.2 167.796 512.2H168.516C169.316 512.2 169.516 512 169.516 511.2ZM179.155 508H175.195V504.4H179.155V508ZM179.155 515H175.195V511.4H179.155V515ZM190.34 515H185.82V503.2C185.82 501.8 186.62 501 188.02 501H195.96C199.16 501 199.96 502.76 199.96 505.96C199.96 509.16 199.16 510.96 195.96 510.96H190.34V515ZM190.34 507.48H193.52C194.72 507.48 195.32 507.16 195.32 505.96C195.32 504.76 194.72 504.48 193.52 504.48H191.22C190.62 504.48 190.34 504.76 190.34 505.36V507.48ZM201.157 504.4H208.197C210.397 504.4 211.797 505.8 211.797 508V512.8C211.797 514.2 210.997 515 209.597 515H203.037C201.037 515 200.437 513.84 200.437 511.64C200.437 509.64 201.037 508.36 203.037 508.36H207.877V508.16C207.877 507.46 207.417 507.12 206.677 507.12H201.157V504.4ZM207.877 510.84H205.097C204.697 510.84 204.357 511.16 204.357 511.64C204.357 512 204.597 512.4 205.057 512.4H207.077C207.677 512.4 207.877 512.2 207.877 511.6V510.84ZM217.435 504.4H222.115C223.515 504.4 224.315 505.2 224.315 506.6V514C224.315 517.2 222.915 518.6 219.715 518.6H213.775V516.04H218.595C219.435 516.04 220.135 515.94 220.395 515H217.435C214.035 515 213.035 512.92 213.035 509.72C213.035 506.52 214.035 504.4 217.435 504.4ZM220.395 512.2V508.2C220.395 507.4 220.195 507.2 219.395 507.2H218.675C217.195 507.2 217.035 508.44 217.035 509.72C217.035 510.74 217.215 512.2 218.595 512.2H220.395ZM236.554 515H229.654C226.254 515 225.554 514.04 225.554 509.64C225.554 504.84 226.454 504.28 231.254 504.28C235.254 504.28 236.934 504.6 236.934 508.6C236.934 509.8 236.654 510.96 235.254 510.96H229.474C229.474 511.96 230.014 512.28 231.414 512.28H236.554V515ZM229.474 508.48H232.374C233.014 508.48 233.014 508.02 233.014 507.82C233.014 507.06 231.854 507 231.254 507C230.254 507 229.474 507.16 229.474 508.48ZM242.846 515V506.6C242.846 505 243.646 504.4 245.046 504.4H249.966C252.566 504.4 254.166 505.8 254.166 508.4V515H250.246V509.4C250.246 507.8 249.646 507.2 248.046 507.2H247.566C246.966 507.2 246.766 507.4 246.766 508V515H242.846ZM261.518 504.28C265.918 504.28 267.638 505.3 267.638 509.7C267.638 514.1 265.918 515.12 261.518 515.12C257.118 515.12 255.398 514.1 255.398 509.7C255.398 505.3 257.118 504.28 261.518 504.28ZM259.398 509.7C259.398 511.3 259.718 512.32 261.518 512.32C263.318 512.32 263.638 511.3 263.638 509.7C263.638 508.1 263.318 507.08 261.518 507.08C259.718 507.08 259.398 508.1 259.398 509.7ZM276.641 515H273.701C271.501 515 269.701 514 269.701 511.4V507.2H268.201V504.4H269.701V501H273.621V504.4H276.641V507.2H273.621V509.6C273.621 511.2 274.221 512.2 276.021 512.2H276.641V515ZM282.583 504.4H289.623C291.823 504.4 293.223 505.8 293.223 508V512.8C293.223 514.2 292.423 515 291.023 515H284.463C282.463 515 281.863 513.84 281.863 511.64C281.863 509.64 282.463 508.36 284.463 508.36H289.303V508.16C289.303 507.46 288.843 507.12 288.103 507.12H282.583V504.4ZM289.303 510.84H286.523C286.123 510.84 285.783 511.16 285.783 511.64C285.783 512 286.023 512.4 286.483 512.4H288.503C289.103 512.4 289.303 512.2 289.303 511.6V510.84ZM304.76 515H298.86C295.26 515 294.46 512.92 294.46 509.72C294.46 506.52 295.26 504.4 298.86 504.4H304.54V507.2H300.66C299.06 507.2 298.46 508.12 298.46 509.72C298.46 511.32 299.06 512.2 300.66 512.2H304.76V515ZM315.581 515H309.681C306.081 515 305.281 512.92 305.281 509.72C305.281 506.52 306.081 504.4 309.681 504.4H315.361V507.2H311.481C309.881 507.2 309.281 508.12 309.281 509.72C309.281 511.32 309.881 512.2 311.481 512.2H315.581V515ZM327.296 515H320.396C316.996 515 316.296 514.04 316.296 509.64C316.296 504.84 317.196 504.28 321.996 504.28C325.996 504.28 327.676 504.6 327.676 508.6C327.676 509.8 327.396 510.96 325.996 510.96H320.216C320.216 511.96 320.756 512.28 322.156 512.28H327.296V515ZM320.216 508.48H323.116C323.756 508.48 323.756 508.02 323.756 507.82C323.756 507.06 322.596 507 321.996 507C320.996 507 320.216 507.16 320.216 508.48ZM328.64 515V512.16H334.42C334.56 512.16 334.76 512.08 334.76 511.88C334.76 511.56 333.68 511.34 333.38 511.22L331.1 510.48C329.48 509.94 328.52 509.3 328.52 507.3C328.52 505.3 329.52 504.4 331.32 504.4H338.56V507.12H332.8C332.64 507.12 332.16 507.12 332.16 507.32C332.16 507.62 332.7 507.7 333.18 507.86L335.86 508.76C337.62 509.36 338.84 510 338.84 512.2C338.84 514.2 337.84 515 336.04 515H328.64ZM339.675 515V512.16H345.455C345.595 512.16 345.795 512.08 345.795 511.88C345.795 511.56 344.715 511.34 344.415 511.22L342.135 510.48C340.515 509.94 339.555 509.3 339.555 507.3C339.555 505.3 340.555 504.4 342.355 504.4H349.595V507.12H343.835C343.675 507.12 343.195 507.12 343.195 507.32C343.195 507.62 343.735 507.7 344.215 507.86L346.895 508.76C348.655 509.36 349.875 510 349.875 512.2C349.875 514.2 348.875 515 347.075 515H339.675ZM350.99 515V504.4H354.91V515H350.99ZM354.91 503.54H350.99V501H354.91V503.54ZM363.32 515H358.64C357.24 515 356.44 514.2 356.44 512.8V501H360.36V504.4H363.32C366.72 504.4 367.72 506.5 367.72 509.7C367.72 512.9 366.72 515 363.32 515ZM360.36 507.2V511.2C360.36 512 360.56 512.2 361.36 512.2H362.08C363.56 512.2 363.72 510.98 363.72 509.7C363.72 508.68 363.54 507.2 362.16 507.2H360.36ZM368.959 515V501H372.879V515H368.959ZM385.128 515H378.228C374.828 515 374.128 514.04 374.128 509.64C374.128 504.84 375.028 504.28 379.828 504.28C383.828 504.28 385.508 504.6 385.508 508.6C385.508 509.8 385.228 510.96 383.828 510.96H378.048C378.048 511.96 378.588 512.28 379.988 512.28H385.128V515ZM378.048 508.48H380.948C381.588 508.48 381.588 508.02 381.588 507.82C381.588 507.06 380.428 507 379.828 507C378.828 507 378.048 507.16 378.048 508.48ZM390.952 515H386.992V511.4H390.952V515Z"
        fill="white" />
    <path
        d="M359.5 413.88C357.57 413.88 355.8 412.6 355.26 410.65L352.01 398.84C351.37 396.5 352.74 394.08 355.08 393.43L370.86 389.08L343.98 373.82C341.87 372.62 341.13 369.93 342.33 367.83L348.38 357.18C348.96 356.16 349.9 355.42 351.03 355.11C352.16 354.8 353.35 354.94 354.37 355.53L381.25 370.8L376.9 355.02C376.59 353.89 376.73 352.7 377.31 351.68C377.89 350.66 378.83 349.92 379.97 349.61L391.78 346.36C392.91 346.05 394.1 346.2 395.12 346.78C396.14 347.36 396.88 348.31 397.19 349.44L409.83 395.64C410.47 397.97 409.09 400.4 406.76 401.04L360.68 413.74C360.29 413.85 359.9 413.9 359.51 413.9L359.5 413.88ZM356.98 398.09L359.91 408.74L404.83 396.36L392.51 351.33L381.87 354.26L389.27 381.1L352.41 360.17L346.96 369.77L383.81 390.7L356.98 398.09Z"
        fill="#F9EBE8" />
    <path
        d="M361.16 248.57L349.53 260.2C348.54 261.19 348.54 262.81 349.53 263.8L370.8 285.07H312.72C311.31 285.07 310.17 286.21 310.17 287.62V304.07C310.17 305.48 311.31 306.62 312.72 306.62H370.81L349.53 327.89C348.54 328.88 348.54 330.5 349.53 331.49L361.16 343.12C362.16 344.12 363.77 344.11 364.76 343.12L410.15 297.57C411.14 296.58 411.14 294.97 410.15 293.97L364.77 248.59C363.78 247.6 362.16 247.6 361.17 248.59L361.16 248.57Z"
        fill="#F9EBE8" />
    <path
        d="M382.86 241.67C382.59 241.67 382.31 241.64 382.04 241.58L373 239.67C371.97 239.45 371.09 238.85 370.52 237.97C369.95 237.09 369.75 236.04 369.97 235.01L372.22 224.37L353.91 236.3C352.1 237.48 349.65 236.97 348.47 235.15L343.42 227.4C342.24 225.58 342.75 223.14 344.57 221.96L362.87 210.03L352.23 207.79C351.2 207.57 350.32 206.97 349.75 206.09C349.18 205.21 348.98 204.16 349.2 203.13L351.11 194.08C351.33 193.05 351.93 192.17 352.81 191.6C353.69 191.03 354.74 190.83 355.77 191.05L391.07 198.49C393.19 198.94 394.55 201.02 394.11 203.14L386.71 238.52C386.49 239.55 385.89 240.43 385.01 241.01C384.36 241.43 383.62 241.65 382.87 241.65L382.86 241.67ZM375.08 235L382.03 236.47L388.99 203.18L355.78 196.18L354.31 203.13L375.71 207.64L348.19 225.57L352.07 231.52L379.6 213.58L375.08 234.99V235Z"
        fill="#F9EBE8" />
    <path
        d="M273.08 299.6C273.08 295.02 269.37 291.31 264.79 291.31H235.12L212.72 264.22C210.49 261.52 207.18 259.96 203.68 259.96H146.01C143.36 259.96 140.89 261.28 139.41 263.48L121.12 290.73C118.45 294.78 119.56 300.22 123.61 302.89C127.66 305.56 133.1 304.45 135.77 300.4L150.43 278.2H170.49L155.35 310.93C154.14 313.55 153.43 316.39 153.28 319.27L151.25 357.78L109.17 355.12C97.7001 354.39 87.8101 363.1 87.0801 374.58L160 379.2C165.87 379.57 170.93 375.12 171.31 369.25L174.21 324.48L174.45 324.59L211.93 401.69C214.24 406.45 219.07 409.46 224.35 409.46H240.19L196.33 319.25L210.8 287.97L224.86 304.91C226.36 306.72 228.6 307.77 230.95 307.78L264.78 307.88C269.36 307.88 273.07 304.17 273.07 299.59L273.08 299.6Z"
        fill="#F9EBE8" />
    <path
        d="M206.46 255.21C228.143 255.21 245.72 237.633 245.72 215.95C245.72 194.267 228.143 176.69 206.46 176.69C184.778 176.69 167.2 194.267 167.2 215.95C167.2 237.633 184.778 255.21 206.46 255.21Z"
        fill="#F9EBE8" />
    <path
        d="M225.49 233.79C233.404 233.79 239.82 227.374 239.82 219.46C239.82 211.546 233.404 205.13 225.49 205.13C217.576 205.13 211.16 211.546 211.16 219.46C211.16 227.374 217.576 233.79 225.49 233.79Z"
        fill="#231D1D" />
    <path
        d="M225.49 227.51C229.936 227.51 233.54 223.906 233.54 219.46C233.54 215.014 229.936 211.41 225.49 211.41C221.044 211.41 217.44 215.014 217.44 219.46C217.44 223.906 221.044 227.51 225.49 227.51Z"
        fill="#F9EBE8" />
    <path d="M225.08 237.6C225.08 245.65 216.75 252.17 206.47 252.17C196.19 252.17 187.86 245.65 187.86 237.6H225.08Z"
        fill="#231D1D" />
    <path
        d="M195.02 225.46C194.61 225.46 194.2 225.34 193.84 225.07L179.56 214.63C178.67 213.98 178.47 212.73 179.13 211.84C179.78 210.95 181.03 210.75 181.92 211.41L196.2 221.85C197.09 222.5 197.29 223.75 196.63 224.64C196.24 225.18 195.63 225.46 195.01 225.46H195.02Z"
        fill="#231D1D" />
    <path
        d="M177.34 226.88C176.3 226.88 175.42 226.08 175.35 225.03C175.27 223.93 176.1 222.97 177.2 222.89L194.84 221.6C195.94 221.51 196.9 222.35 196.98 223.45C197.06 224.55 196.23 225.51 195.13 225.59L177.48 226.88C177.48 226.88 177.38 226.88 177.33 226.88H177.34Z"
        fill="#231D1D" />
    <path
        d="M200.74 241.52C202.905 241.52 204.66 239.765 204.66 237.6C204.66 235.435 202.905 233.68 200.74 233.68C198.575 233.68 196.82 235.435 196.82 237.6C196.82 239.765 198.575 241.52 200.74 241.52Z"
        fill="#F9EBE8" />
    <path
        d="M208.71 237.6C208.71 235.44 210.46 233.68 212.63 233.68C214.8 233.68 216.55 235.43 216.55 237.6C216.55 239.77 214.8 241.52 212.63 241.52C210.46 241.52 208.71 239.77 208.71 237.6Z"
        fill="#F9EBE8" />
    <path
        d="M276.02 426.37H104.63C74.2701 426.37 49.5601 401.67 49.5601 371.3V214C49.5601 183.64 74.2601 158.93 104.63 158.93H276.02C306.39 158.93 331.09 183.63 331.09 214V371.3C331.09 401.66 306.39 426.37 276.02 426.37ZM104.63 163.93C77.0201 163.93 54.5601 186.39 54.5601 214V371.3C54.5601 398.91 77.0201 421.37 104.63 421.37H276.02C303.63 421.37 326.09 398.91 326.09 371.3V214C326.09 186.39 303.63 163.93 276.02 163.93H104.63Z"
        fill="#F9EBE8" />
    <path
        d="M112.28 121V109.6H74.6C65 109.6 63.2 100.96 63.2 92.68C63.2 82.84 66.2 79 69.68 75.88L107.96 41.44C110.96 38.8 115.4 36.04 124.4 36.04C131.6 36.04 139.64 37.6 139.64 48.4V87.52H151.88V109.6H139.4V121H112.28ZM112.28 87.52V66.52C112.28 66.16 112.16 66.04 111.8 66.04C111.2 66.04 110.84 66.76 110.24 67.24L89.96 85.24C89.6 85.6 89.12 86.08 89.12 86.44C89.12 86.92 89.36 87.52 90.68 87.52H112.28ZM195.267 36.04C221.667 36.04 232.707 40 232.707 70V87.28C232.707 118.48 221.667 121.96 195.267 121.96C168.867 121.96 157.827 118.48 157.827 87.28V70C157.827 40 168.867 36.04 195.267 36.04ZM195.267 100.36C203.667 100.36 205.587 96.88 205.587 87.28V70C205.587 61.6 203.667 57.64 195.267 57.64C186.867 57.64 184.947 61.6 184.947 70V87.28C184.947 96.88 186.867 100.36 195.267 100.36ZM286.538 121V109.6H248.858C239.258 109.6 237.458 100.96 237.458 92.68C237.458 82.84 240.458 79 243.938 75.88L282.218 41.44C285.218 38.8 289.658 36.04 298.658 36.04C305.858 36.04 313.898 37.6 313.898 48.4V87.52H326.138V109.6H313.658V121H286.538ZM286.538 87.52V66.52C286.538 66.16 286.418 66.04 286.058 66.04C285.458 66.04 285.098 66.76 284.498 67.24L264.218 85.24C263.858 85.6 263.378 86.08 263.378 86.44C263.378 86.92 263.618 87.52 264.938 87.52H286.538Z"
        fill="#F9EBE8" />
</svg>