<svg width="264" height="122" viewBox="0 0 264 122" fill="none" xmlns="http://www.w3.org/2000/svg">
    <g clip-path="url(#clip0_7_263)">
        <path
            d="M243.232 75.1207V78.4712H264.001V82.4456H217.686V78.4712H238.454V73.4523H243.017C244.403 73.7372 244.47 74.2933 243.219 75.1207H243.232ZM258.186 121.376H254.242L253.408 117.402H256.517C257.069 117.402 257.352 117.117 257.352 116.561V103.172H224.537V122.014H220.378V99.1979H261.497V118.039C261.497 120.264 260.393 121.39 258.173 121.39L258.186 121.376ZM227.457 96.268V85.1721H254.458V96.268H227.457ZM233.891 116.357V118.663H230.365V105.682H251.55V116.357H233.905H233.891ZM250.918 88.5226H230.984V92.9175H250.918V88.5226ZM233.891 113.007H248.01V109.032H233.891V113.007Z"
            fill="#8CEEEE" />
        <path
            d="M203.767 78.2542H187.158V81.6046H207.926V91.656H203.767V84.1276H187.158V96.0509H182.999V84.1276H167.009V92.497H162.85V81.6182H182.999V78.2677H166.39V74.9173H203.767V78.2677V78.2542ZM209.582 114.038C209.447 119.192 207.159 121.783 202.731 121.783H186.539C184.049 121.783 182.797 120.589 182.797 118.229V114.255H172.002V117.809H168.476V97.2989H202.327V114.255H186.956V116.14C186.956 117.252 187.441 117.809 188.41 117.809H202.112C203.915 117.809 204.884 116.276 205.019 113.21L209.582 114.051V114.038ZM169.499 89.3364V86.827H180.926V89.3364H169.499ZM180.926 94.3553H169.499V91.8459H180.926V94.3553ZM172.002 103.986H182.797V100.636H172.002V103.986ZM172.002 110.891H182.797V107.337H172.002V110.891ZM186.956 103.986H198.787V100.636H186.956V103.986ZM186.956 110.891H198.787V107.337H186.956V110.891ZM189.446 89.3364V86.827H201.493V89.3364H189.446ZM189.446 94.3553V91.8459H201.493V94.3553H189.446Z"
            fill="#8CEEEE" />
        <path
            d="M113.95 74.2933H154.45V78.2677H118.109V101.707C118.109 108.273 116.453 113.427 113.129 117.198L110.02 113.848C112.644 111.053 113.963 106.726 113.963 100.866V74.2933H113.95ZM139.281 81.6182C140.385 82.0387 140.317 82.4592 139.079 82.8797V92.5106H152.997V96.485H139.079V113.02H156.725V116.995H118.728V113.02H134.92V96.485H122.456V92.5106H134.92V81.6318H139.281V81.6182Z"
            fill="#8CEEEE" />
        <path
            d="M98.781 78.2542H82.1716V81.6046H102.94V91.656H98.781V84.1276H82.1716V96.0509H78.0126V84.1276H62.0224V92.497H57.8633V81.6182H78.0126V78.2677H61.4032V74.9173H98.781V78.2677V78.2542ZM104.596 114.038C104.461 119.192 102.173 121.783 97.7446 121.783H81.5525C79.0624 121.783 77.8107 120.589 77.8107 118.229V114.255H67.0159V117.809H63.4895V97.2989H97.3408V114.255H81.9697V116.14C81.9697 117.252 82.4543 117.809 83.4234 117.809H97.1254C98.9291 117.809 99.8981 116.276 100.033 113.21L104.596 114.051V114.038ZM64.5124 89.3364V86.827H75.9398V89.3364H64.5124ZM75.9398 94.3553H64.5124V91.8459H75.9398V94.3553ZM67.0159 103.986H77.8107V100.636H67.0159V103.986ZM67.0159 110.891H77.8107V107.337H67.0159V110.891ZM81.9697 103.986H93.8009V100.636H81.9697V103.986ZM81.9697 110.891H93.8009V107.337H81.9697V110.891ZM84.4598 89.3364V86.827H96.5063V89.3364H84.4598ZM84.4598 94.3553V91.8459H96.5063V94.3553H84.4598Z"
            fill="#8CEEEE" />
        <path
            d="M29.2205 75.1207V78.4712H49.9889V82.4456H3.67383V78.4712H24.4423V73.4523H29.0051C30.3915 73.7372 30.4588 74.2933 29.207 75.1207H29.2205ZM44.1743 121.376H40.2306L39.3961 117.402H42.5053C43.0571 117.402 43.3398 117.117 43.3398 116.561V103.172H10.5249V122.014H6.36578V99.1979H47.4854V118.039C47.4854 120.264 46.3817 121.39 44.1608 121.39L44.1743 121.376ZM13.4456 96.268V85.1721H40.4459V96.268H13.4322H13.4456ZM19.8794 116.357V118.663H16.3529V105.682H37.5386V116.357H19.8929H19.8794ZM36.906 88.5226H16.9721V92.9175H36.906V88.5226ZM19.8794 113.007H33.9987V109.032H19.8794V113.007Z"
            fill="#8CEEEE" />
        <path d="M87.0055 10.4719H85.6191V46.4588H87.0055V10.4719Z" fill="#8CEEEE" />
        <path d="M96.7375 10.4719H92.3496V46.4588H96.7375V10.4719Z" fill="#8CEEEE" />
        <path d="M102.592 10.4719H101.34V46.4588H102.592V10.4719Z" fill="#8CEEEE" />
        <path d="M104.544 10.4719H103.736V46.4588H104.544V10.4719Z" fill="#8CEEEE" />
        <path d="M108.864 10.4719H106.078V46.4588H108.864V10.4719Z" fill="#8CEEEE" />
        <path d="M111.623 10.4719H110.869V46.4588H111.623V10.4719Z" fill="#8CEEEE" />
        <path d="M114.463 10.4719H113.076V46.4588H114.463V10.4719Z" fill="#8CEEEE" />
        <path d="M124.195 10.4719H119.807V46.4588H124.195V10.4719Z" fill="#8CEEEE" />
        <path d="M117.963 10.4719H116.631V46.4588H117.963V10.4719Z" fill="#8CEEEE" />
        <path d="M130.037 10.4719H128.785V46.4588H130.037V10.4719Z" fill="#8CEEEE" />
        <path d="M132.001 10.4719H131.193V46.4588H132.001V10.4719Z" fill="#8CEEEE" />
        <path d="M136.321 10.4719H133.535V46.4588H136.321V10.4719Z" fill="#8CEEEE" />
        <path d="M139.082 10.4719H138.328V46.4588H139.082V10.4719Z" fill="#8CEEEE" />
        <path d="M141.759 10.4719H140.373V46.4588H141.759V10.4719Z" fill="#8CEEEE" />
        <path d="M148.624 10.4719H144.236V46.4588H148.624V10.4719Z" fill="#8CEEEE" />
        <path d="M151.14 10.4719H149.889V46.4588H151.14V10.4719Z" fill="#8CEEEE" />
        <path d="M153.093 10.4719H152.285V46.4588H153.093V10.4719Z" fill="#8CEEEE" />
        <path d="M157.413 10.4719H154.627V46.4588H157.413V10.4719Z" fill="#8CEEEE" />
        <path d="M160.174 10.4719H159.42V46.4588H160.174V10.4719Z" fill="#8CEEEE" />
        <path d="M163.013 10.4719H161.627V46.4588H163.013V10.4719Z" fill="#8CEEEE" />
        <path d="M172.743 10.4719H168.355V46.4588H172.743V10.4719Z" fill="#8CEEEE" />
        <path d="M166.512 10.4719H165.18V46.4588H166.512V10.4719Z" fill="#8CEEEE" />
        <path d="M178.586 10.4719H177.334V46.4588H178.586V10.4719Z" fill="#8CEEEE" />
        <path d="M180.552 10.4719H179.744V46.4588H180.552V10.4719Z" fill="#8CEEEE" />
        <path d="M184.872 10.4719H182.086V46.4588H184.872V10.4719Z" fill="#8CEEEE" />
        <path d="M187.631 10.4719H186.877V46.4588H187.631V10.4719Z" fill="#8CEEEE" />
        <path d="M183.336 2.8757L184.884 5.96843H190.227V15.5179L191.156 13.646V2.76718H183.336V2.8757Z"
            fill="#8CEEEE" />
        <path d="M84.3929 9.30531H82.3066V35.9597H84.3929V9.30531Z" fill="#8CEEEE" />
        <path d="M9.58362 10.4719H8.19727V46.4588H9.58362V10.4719Z" fill="#8CEEEE" />
        <path d="M19.3156 10.4719H14.9277V46.4588H19.3156V10.4719Z" fill="#8CEEEE" />
        <path d="M25.1561 10.4719H23.9043V46.4588H25.1561V10.4719Z" fill="#8CEEEE" />
        <path d="M27.122 10.4719H26.3145V46.4588H27.122V10.4719Z" fill="#8CEEEE" />
        <path d="M31.4424 10.4719H28.6562V46.4588H31.4424V10.4719Z" fill="#8CEEEE" />
        <path d="M34.201 10.4719H33.4473V46.4588H34.201V10.4719Z" fill="#8CEEEE" />
        <path d="M37.0426 10.4719H35.6562V46.4588H37.0426V10.4719Z" fill="#8CEEEE" />
        <path d="M46.7727 10.4719H42.3848V46.4588H46.7727V10.4719Z" fill="#8CEEEE" />
        <path d="M40.5415 10.4719H39.209V46.4588H40.5415V10.4719Z" fill="#8CEEEE" />
        <path d="M52.615 10.4719H51.3633V46.4588H52.615V10.4719Z" fill="#8CEEEE" />
        <path d="M54.5791 10.4719H53.7715V46.4588H54.5791V10.4719Z" fill="#8CEEEE" />
        <path d="M58.9014 10.4719H56.1152V46.4588H58.9014V10.4719Z" fill="#8CEEEE" />
        <path d="M61.6463 10.4719H60.8926V46.4588H61.6463V10.4719Z" fill="#8CEEEE" />
        <path d="M64.3375 10.4719H62.9512V46.4588H64.3375V10.4719Z" fill="#8CEEEE" />
        <path d="M71.1887 10.4719H66.8008V46.4588H71.1887V10.4719Z" fill="#8CEEEE" />
        <path d="M73.7068 10.4719H72.4551V46.4588H73.7068V10.4719Z" fill="#8CEEEE" />
        <path d="M75.6709 10.4719H74.8633V46.4588H75.6709V10.4719Z" fill="#8CEEEE" />
        <path d="M79.9913 10.4719H77.2051V46.4588H79.9913V10.4719Z" fill="#8CEEEE" />
        <path d="M6.95931 9.30531H4.87305V35.9597H6.95931V9.30531Z" fill="#8CEEEE" />
        <path
            d="M245.292 21.7034L240.608 13.2662L232.048 18.2986V8.2337H222.532V18.2986L213.971 13.2662L209.287 21.7034L217.726 26.7358L209.287 31.6191L213.971 40.0563L222.532 35.0238V44.9531H232.048V35.0238L240.608 40.0563L245.292 31.6191L236.718 26.7358L245.292 21.7034Z"
            fill="#8CEEEE" />
        <path d="M0.390625 0.393372V53.8243H262.25V0.393372H0.390625ZM261.133 52.6985H1.50779V1.51923H261.133V52.6985Z"
            fill="#F9EBE8" />
        <path d="M195.463 3.59462V50.1755H259.087V3.59462H195.463ZM258.535 49.6057H196.015V4.16433H258.535V49.6057Z"
            fill="#F9EBE8" />
        <path
            d="M22.2364 61.5561C22.1152 61.4069 21.9268 61.3255 21.6576 61.3255H20.9442V63.7943H21.4826C21.7922 63.7943 22.021 63.7265 22.1825 63.5908C22.3306 63.4687 22.4114 63.2246 22.4114 62.8855V62.2479C22.4114 61.9359 22.3441 61.7053 22.2229 61.5561H22.2364ZM22.2364 61.5561C22.1152 61.4069 21.9268 61.3255 21.6576 61.3255H20.9442V63.7943H21.4826C21.7922 63.7943 22.021 63.7265 22.1825 63.5908C22.3306 63.4687 22.4114 63.2246 22.4114 62.8855V62.2479C22.4114 61.9359 22.3441 61.7053 22.2229 61.5561H22.2364ZM14.9008 61.5561C14.7797 61.4069 14.5778 61.3255 14.322 61.3255H13.6087V63.7943H14.1471C14.4566 63.7943 14.6989 63.7265 14.847 63.5908C14.995 63.4687 15.0758 63.2246 15.0758 62.8855V62.2479C15.0758 61.9359 15.0085 61.7053 14.9008 61.5561ZM18.6022 61.5154C18.4811 61.3527 18.2792 61.2577 18.0235 61.2577C17.7677 61.2577 17.5658 61.3527 17.4447 61.5154C17.3101 61.6918 17.2563 61.9224 17.2563 62.2344V65.7612C17.2563 66.0731 17.3236 66.3037 17.4447 66.4665C17.5793 66.6429 17.7677 66.7242 18.0235 66.7242C18.5484 66.7242 18.8041 66.3987 18.8041 65.7612V62.2344C18.8041 61.9224 18.7368 61.6782 18.6157 61.5154H18.6022ZM22.2498 61.5561C22.1287 61.4069 21.9403 61.3255 21.6711 61.3255H20.9577V63.7943H21.4961C21.8057 63.7943 22.0345 63.7265 22.196 63.5908C22.3441 63.4687 22.4248 63.2246 22.4248 62.8855V62.2479C22.4248 61.9359 22.3575 61.7053 22.2364 61.5561H22.2498ZM22.2498 61.5561C22.1287 61.4069 21.9403 61.3255 21.6711 61.3255H20.9577V63.7943H21.4961C21.8057 63.7943 22.0345 63.7265 22.196 63.5908C22.3441 63.4687 22.4248 63.2246 22.4248 62.8855V62.2479C22.4248 61.9359 22.3575 61.7053 22.2364 61.5561H22.2498ZM18.6022 61.5154C18.4811 61.3527 18.2792 61.2577 18.0235 61.2577C17.7677 61.2577 17.5658 61.3527 17.4447 61.5154C17.3101 61.6918 17.2563 61.9224 17.2563 62.2344V65.7612C17.2563 66.0731 17.3236 66.3037 17.4447 66.4665C17.5793 66.6429 17.7677 66.7242 18.0235 66.7242C18.5484 66.7242 18.8041 66.3987 18.8041 65.7612V62.2344C18.8041 61.9224 18.7368 61.6782 18.6157 61.5154H18.6022ZM14.9008 61.5561C14.7797 61.4069 14.5778 61.3255 14.322 61.3255H13.6087V63.7943H14.1471C14.4566 63.7943 14.6989 63.7265 14.847 63.5908C14.995 63.4687 15.0758 63.2246 15.0758 62.8855V62.2479C15.0758 61.9359 15.0085 61.7053 14.9008 61.5561ZM11.1994 61.5561C11.0782 61.4069 10.8763 61.3255 10.6206 61.3255H9.90723V63.7943H10.4456C10.7552 63.7943 10.9975 63.7265 11.1455 63.5908C11.2936 63.4687 11.3743 63.2246 11.3743 62.8855V62.2479C11.3743 61.9359 11.307 61.7053 11.1994 61.5561ZM14.9008 61.5561C14.7797 61.4069 14.5778 61.3255 14.322 61.3255H13.6087V63.7943H14.1471C14.4566 63.7943 14.6989 63.7265 14.847 63.5908C14.995 63.4687 15.0758 63.2246 15.0758 62.8855V62.2479C15.0758 61.9359 15.0085 61.7053 14.9008 61.5561ZM18.6022 61.5154C18.4811 61.3527 18.2792 61.2577 18.0235 61.2577C17.7677 61.2577 17.5658 61.3527 17.4447 61.5154C17.3101 61.6918 17.2563 61.9224 17.2563 62.2344V65.7612C17.2563 66.0731 17.3236 66.3037 17.4447 66.4665C17.5793 66.6429 17.7677 66.7242 18.0235 66.7242C18.5484 66.7242 18.8041 66.3987 18.8041 65.7612V62.2344C18.8041 61.9224 18.7368 61.6782 18.6157 61.5154H18.6022ZM22.2498 61.5561C22.1287 61.4069 21.9403 61.3255 21.6711 61.3255H20.9577V63.7943H21.4961C21.8057 63.7943 22.0345 63.7265 22.196 63.5908C22.3441 63.4687 22.4248 63.2246 22.4248 62.8855V62.2479C22.4248 61.9359 22.3575 61.7053 22.2364 61.5561H22.2498ZM22.2498 61.5561C22.1287 61.4069 21.9403 61.3255 21.6711 61.3255H20.9577V63.7943H21.4961C21.8057 63.7943 22.0345 63.7265 22.196 63.5908C22.3441 63.4687 22.4248 63.2246 22.4248 62.8855V62.2479C22.4248 61.9359 22.3575 61.7053 22.2364 61.5561H22.2498ZM18.6022 61.5154C18.4811 61.3527 18.2792 61.2577 18.0235 61.2577C17.7677 61.2577 17.5658 61.3527 17.4447 61.5154C17.3101 61.6918 17.2563 61.9224 17.2563 62.2344V65.7612C17.2563 66.0731 17.3236 66.3037 17.4447 66.4665C17.5793 66.6429 17.7677 66.7242 18.0235 66.7242C18.5484 66.7242 18.8041 66.3987 18.8041 65.7612V62.2344C18.8041 61.9224 18.7368 61.6782 18.6157 61.5154H18.6022ZM14.9008 61.5561C14.7797 61.4069 14.5778 61.3255 14.322 61.3255H13.6087V63.7943H14.1471C14.4566 63.7943 14.6989 63.7265 14.847 63.5908C14.995 63.4687 15.0758 63.2246 15.0758 62.8855V62.2479C15.0758 61.9359 15.0085 61.7053 14.9008 61.5561ZM11.1994 61.5561C11.0782 61.4069 10.8763 61.3255 10.6206 61.3255H9.90723V63.7943H10.4456C10.7552 63.7943 10.9975 63.7265 11.1455 63.5908C11.2936 63.4687 11.3743 63.2246 11.3743 62.8855V62.2479C11.3743 61.9359 11.307 61.7053 11.1994 61.5561ZM0.673828 58.3549V69.9662H261.699V58.3549H0.673828ZM5.07517 64.3233H3.28502V63.6586H5.07517V64.3233ZM8.49396 61.3255H6.52883V63.6044H8.13054V64.2826H6.52883V66.6564H8.49396V67.3347H5.78854V60.6473H8.49396V61.3255ZM11.4955 67.3347C11.4147 67.1312 11.3743 66.8599 11.3743 66.5208V65.4627C11.3743 65.0965 11.2936 64.8388 11.1321 64.7031C10.9706 64.5539 10.7283 64.4725 10.4187 64.4725H9.90723V67.3211H9.16694V60.6337H10.6341C11.1455 60.6337 11.5089 60.7558 11.7512 61.0135C11.9935 61.2713 12.1012 61.6511 12.1012 62.153V62.6956C12.1012 63.4281 11.832 63.8892 11.2801 64.0792C11.5762 64.1605 11.7781 64.3233 11.9127 64.5539C12.0473 64.7845 12.1012 65.0965 12.1012 65.4627V66.5072C12.1012 66.8735 12.1416 67.1312 12.2223 67.3075H11.482L11.4955 67.3347ZM15.1969 67.3347C15.1162 67.1312 15.0758 66.8599 15.0758 66.5208V65.4627C15.0758 65.0965 14.995 64.8388 14.8335 64.7031C14.672 64.5539 14.4297 64.4725 14.1201 64.4725H13.6087V67.3211H12.8684V60.6337H14.3355C14.847 60.6337 15.2104 60.7558 15.4527 61.0135C15.6949 61.2713 15.8026 61.6511 15.8026 62.153V62.6956C15.8026 63.4281 15.5334 63.8892 14.9816 64.0792C15.2777 64.1605 15.4796 64.3233 15.6142 64.5539C15.7488 64.7845 15.8161 65.0965 15.8161 65.4627V66.5072C15.8161 66.8735 15.8565 67.1312 15.9372 67.3075H15.1969V67.3347ZM19.5175 65.7205C19.5175 66.2359 19.3829 66.6429 19.1272 66.9413C18.8714 67.2397 18.4946 67.3889 17.9966 67.3889C17.4985 67.3889 17.1351 67.2397 16.8794 66.9413C16.6237 66.6429 16.5025 66.2359 16.5025 65.7205V62.2615C16.5025 61.7325 16.6237 61.3255 16.8794 61.0271C17.1351 60.7287 17.512 60.5795 17.9966 60.5795C18.4811 60.5795 18.8714 60.7287 19.1272 61.0271C19.3829 61.3255 19.5175 61.7325 19.5175 62.2615V65.7205ZM22.546 67.3347C22.4517 67.1312 22.4248 66.8599 22.4248 66.5208V65.4627C22.4248 65.0965 22.3441 64.8388 22.1825 64.7031C22.021 64.5539 21.7788 64.4725 21.4692 64.4725H20.9577V67.3211H20.2174V60.6337H21.6845C22.196 60.6337 22.5594 60.7558 22.8017 61.0135C23.0305 61.2713 23.1516 61.6511 23.1516 62.153V62.6956C23.1516 63.4281 22.8825 63.8892 22.3306 64.0792C22.6267 64.1605 22.8421 64.3233 22.9632 64.5539C23.0843 64.7845 23.1516 65.0965 23.1516 65.4627V66.5072C23.1516 66.8735 23.192 67.1312 23.2728 67.3075H22.5325L22.546 67.3347ZM25.6821 64.3233H23.8919V63.6586H25.6821V64.3233ZM28.8855 66.9413C28.6432 67.2397 28.2664 67.3889 27.7818 67.3889C27.2973 67.3889 26.9204 67.2397 26.6781 66.9413C26.4358 66.6429 26.3147 66.2359 26.3147 65.7205V65.3271H27.0011V65.7476C27.0011 66.3716 27.2569 66.6971 27.7684 66.6971C28.2798 66.6971 28.5356 66.3716 28.5356 65.7476C28.5356 65.5441 28.4952 65.3542 28.4144 65.1914C28.3337 65.0151 28.226 64.8523 28.1048 64.7167C27.9702 64.5946 27.8356 64.459 27.6741 64.3233C27.5261 64.1877 27.3646 64.0656 27.203 63.9164C27.055 63.7807 26.9069 63.6315 26.7723 63.4823C26.6512 63.3331 26.5435 63.1432 26.4628 62.9262C26.382 62.7091 26.3416 62.4785 26.3416 62.2208C26.3416 61.6918 26.4628 61.2848 26.705 60.9864C26.9473 60.7016 27.3107 60.5388 27.7953 60.5388C28.2798 60.5388 28.6432 60.688 28.899 60.9864C29.1412 61.2713 29.2624 61.6918 29.2624 62.2072V62.3836H28.5759V62.1665C28.5759 61.529 28.3337 61.2035 27.8222 61.2035C27.3107 61.2035 27.0684 61.5154 27.0684 62.153C27.0684 62.3564 27.1088 62.5464 27.1896 62.7227C27.2703 62.899 27.378 63.0618 27.5126 63.1975C27.6338 63.3331 27.7818 63.4552 27.9433 63.5908C28.1048 63.7129 28.2664 63.8485 28.4279 63.9842C28.5759 64.1198 28.724 64.2691 28.8586 64.4318C28.9932 64.581 29.1009 64.7709 29.1816 64.9744C29.2624 65.1914 29.3028 65.422 29.3028 65.6798C29.3028 66.1952 29.1682 66.6022 28.9259 66.9006L28.8855 66.9413ZM31.7255 64.893V67.3347H30.9852V64.9337L29.5989 60.6609H30.3526L31.3756 63.9435L32.412 60.6609H33.0984L31.7121 64.9066L31.7255 64.893ZM36.0461 66.9413C35.8038 67.2397 35.427 67.3889 34.9424 67.3889C34.4579 67.3889 34.081 67.2397 33.8387 66.9413C33.5964 66.6429 33.4753 66.2359 33.4753 65.7205V65.3271H34.1617V65.7476C34.1617 66.3716 34.4175 66.6971 34.929 66.6971C35.4404 66.6971 35.6962 66.3716 35.6962 65.7476C35.6962 65.5441 35.6558 65.3542 35.575 65.1914C35.4943 65.0151 35.3866 64.8523 35.2654 64.7167C35.1308 64.5946 34.9963 64.459 34.8347 64.3233C34.6867 64.1877 34.5252 64.0656 34.3636 63.9164C34.2156 63.7807 34.0675 63.6315 33.9329 63.4823C33.8118 63.3331 33.7041 63.1432 33.6234 62.9262C33.5426 62.7091 33.5022 62.4785 33.5022 62.2208C33.5022 61.6918 33.6234 61.2848 33.8656 60.9864C34.1079 60.7016 34.4713 60.5388 34.9559 60.5388C35.4404 60.5388 35.8038 60.688 36.0596 60.9864C36.3018 61.2713 36.423 61.6918 36.423 62.2072V62.3836H35.7365V62.1665C35.7365 61.529 35.4943 61.2035 34.9828 61.2035C34.4713 61.2035 34.229 61.5154 34.229 62.153C34.229 62.3564 34.2694 62.5464 34.3502 62.7227C34.4309 62.899 34.5386 63.0618 34.6732 63.1975C34.7944 63.3331 34.9424 63.4552 35.1039 63.5908C35.2654 63.7129 35.427 63.8485 35.5885 63.9842C35.7365 64.1198 35.8846 64.2691 36.0192 64.4318C36.1538 64.581 36.2615 64.7709 36.3422 64.9744C36.423 65.1914 36.4634 65.422 36.4634 65.6798C36.4634 66.1952 36.3422 66.6022 36.0865 66.9006L36.0461 66.9413ZM39.9494 61.3255H38.7246V67.3347H38.0112V61.3255H36.7999V60.6473H39.9494V61.3255ZM43.1529 61.3255H41.1743V63.6044H42.776V64.2826H41.1743V66.6564H43.1529V67.3347H40.434V60.6473H43.1529V61.3255ZM47.9715 67.3347H47.285V61.9631L46.2352 67.3211H45.5353L44.445 62.0173V67.3347H43.8124V60.6473H44.8219L45.9121 65.9918L46.962 60.6473H47.9715V67.3347ZM50.5019 64.3233H48.7118V63.6586H50.5019V64.3233ZM165.731 65.7069H163.591V63.5366H165.731V65.7069ZM165.731 62.6549H163.591V60.4845H165.731V62.6549ZM168.908 68.7725H166.767V66.5886H168.908V68.7725ZM168.908 65.7069H166.767V63.5366H168.908V65.7069ZM172.084 62.6549H169.944V60.4845H172.084V62.6549ZM175.261 68.7725H173.12V66.5886H175.261V68.7725ZM175.261 65.7069H173.12V63.5366H175.261V65.7069ZM178.437 65.7069H176.297V63.5366H178.437V65.7069ZM178.437 62.6549H176.297V60.4845H178.437V62.6549ZM181.614 68.7725H179.473V66.5886H181.614V68.7725ZM184.79 65.7069H182.65V63.5366H184.79V65.7069ZM184.79 62.6549H182.65V60.4845H184.79V62.6549ZM187.967 68.7725H185.826V66.5886H187.967V68.7725ZM191.143 65.7069H189.003V63.5366H191.143V65.7069ZM194.32 68.7725H192.179V66.5886H194.32V68.7725ZM194.32 62.6549H192.179V60.4845H194.32V62.6549ZM200.363 65.7069H198.223V63.5366H200.363V65.7069ZM200.363 62.6549H198.223V60.4845H200.363V62.6549ZM203.54 68.7725H201.399V66.5886H203.54V68.7725ZM206.716 62.6549H204.576V60.4845H206.716V62.6549ZM209.893 68.7725H207.752V66.5886H209.893V68.7725ZM213.069 62.6549H210.929V60.4845H213.069V62.6549ZM216.246 68.7725H214.105V66.5886H216.246V68.7725ZM219.422 65.7069H217.282V63.5366H219.422V65.7069ZM219.422 62.6549H217.282V60.4845H219.422V62.6549ZM222.599 68.7725H220.458V66.5886H222.599V68.7725ZM225.775 65.7069H223.635V63.5366H225.775V65.7069ZM228.952 68.7725H226.811V66.5886H228.952V68.7725ZM228.952 62.6549H226.811V60.4845H228.952V62.6549ZM232.128 68.7725H229.988V66.5886H232.128V68.7725ZM232.128 65.7069H229.988V63.5366H232.128V65.7069ZM235.278 62.6549H233.138V60.4845H235.278V62.6549ZM238.454 68.7725H236.314V66.5886H238.454V68.7725ZM241.631 62.6549H239.491V60.4845H241.631V62.6549ZM244.807 68.7725H242.667V66.5886H244.807V68.7725ZM244.807 65.7069H242.667V63.5366H244.807V65.7069ZM247.984 65.7069H245.844V63.5366H247.984V65.7069ZM247.984 62.6549H245.844V60.4845H247.984V62.6549ZM251.16 68.7725H249.02V66.5886H251.16V68.7725ZM254.337 65.7069H252.197V63.5366H254.337V65.7069ZM254.337 62.6549H252.197V60.4845H254.337V62.6549ZM257.513 68.7725H255.373V66.5886H257.513V68.7725ZM22.371 62.2479C22.371 61.9359 22.3037 61.7053 22.1825 61.5561C22.0614 61.4069 21.873 61.3255 21.6038 61.3255H20.8904V63.7943H21.4288C21.7384 63.7943 21.9672 63.7265 22.1287 63.5908C22.2768 63.4687 22.3575 63.2246 22.3575 62.8855V62.2479H22.371ZM17.9562 61.2577C17.7004 61.2577 17.4985 61.3527 17.3774 61.5154C17.2428 61.6918 17.189 61.9224 17.189 62.2344V65.7612C17.189 66.0731 17.2563 66.3037 17.3774 66.4665C17.512 66.6429 17.7004 66.7242 17.9562 66.7242C18.4811 66.7242 18.7368 66.3987 18.7368 65.7612V62.2344C18.7368 61.9224 18.6695 61.6782 18.5484 61.5154C18.4273 61.3527 18.2254 61.2577 17.9696 61.2577H17.9562ZM15.0219 62.2479C15.0219 61.9359 14.9546 61.7053 14.847 61.5561C14.7258 61.4069 14.5239 61.3255 14.2682 61.3255H13.5548V63.7943H14.0932C14.4028 63.7943 14.6451 63.7265 14.7931 63.5908C14.9412 63.4687 15.0219 63.2246 15.0219 62.8855V62.2479ZM11.3205 62.2479C11.3205 61.9359 11.2532 61.7053 11.1455 61.5561C11.0244 61.4069 10.8225 61.3255 10.5668 61.3255H9.85339V63.7943H10.3918C10.7014 63.7943 10.9436 63.7265 11.0917 63.5908C11.2397 63.4687 11.3205 63.2246 11.3205 62.8855V62.2479ZM11.1455 61.5561C11.0244 61.4069 10.8225 61.3255 10.5668 61.3255H9.85339V63.7943H10.3918C10.7014 63.7943 10.9436 63.7265 11.0917 63.5908C11.2397 63.4687 11.3205 63.2246 11.3205 62.8855V62.2479C11.3205 61.9359 11.2532 61.7053 11.1455 61.5561ZM14.847 61.5561C14.7258 61.4069 14.5239 61.3255 14.2682 61.3255H13.5548V63.7943H14.0932C14.4028 63.7943 14.6451 63.7265 14.7931 63.5908C14.9412 63.4687 15.0219 63.2246 15.0219 62.8855V62.2479C15.0219 61.9359 14.9546 61.7053 14.847 61.5561ZM18.5484 61.5154C18.4273 61.3527 18.2254 61.2577 17.9696 61.2577C17.7139 61.2577 17.512 61.3527 17.3909 61.5154C17.2563 61.6918 17.2024 61.9224 17.2024 62.2344V65.7612C17.2024 66.0731 17.2697 66.3037 17.3909 66.4665C17.5255 66.6429 17.7139 66.7242 17.9696 66.7242C18.4946 66.7242 18.7503 66.3987 18.7503 65.7612V62.2344C18.7503 61.9224 18.683 61.6782 18.5619 61.5154H18.5484ZM22.196 61.5561C22.0749 61.4069 21.8864 61.3255 21.6172 61.3255H20.9039V63.7943H21.4423C21.7518 63.7943 21.9806 63.7265 22.1422 63.5908C22.2902 63.4687 22.371 63.2246 22.371 62.8855V62.2479C22.371 61.9359 22.3037 61.7053 22.1825 61.5561H22.196ZM22.196 61.5561C22.0749 61.4069 21.8864 61.3255 21.6172 61.3255H20.9039V63.7943H21.4423C21.7518 63.7943 21.9806 63.7265 22.1422 63.5908C22.2902 63.4687 22.371 63.2246 22.371 62.8855V62.2479C22.371 61.9359 22.3037 61.7053 22.1825 61.5561H22.196ZM18.5484 61.5154C18.4273 61.3527 18.2254 61.2577 17.9696 61.2577C17.7139 61.2577 17.512 61.3527 17.3909 61.5154C17.2563 61.6918 17.2024 61.9224 17.2024 62.2344V65.7612C17.2024 66.0731 17.2697 66.3037 17.3909 66.4665C17.5255 66.6429 17.7139 66.7242 17.9696 66.7242C18.4946 66.7242 18.7503 66.3987 18.7503 65.7612V62.2344C18.7503 61.9224 18.683 61.6782 18.5619 61.5154H18.5484ZM14.847 61.5561C14.7258 61.4069 14.5239 61.3255 14.2682 61.3255H13.5548V63.7943H14.0932C14.4028 63.7943 14.6451 63.7265 14.7931 63.5908C14.9412 63.4687 15.0219 63.2246 15.0219 62.8855V62.2479C15.0219 61.9359 14.9546 61.7053 14.847 61.5561ZM11.1455 61.5561C11.0244 61.4069 10.8225 61.3255 10.5668 61.3255H9.85339V63.7943H10.3918C10.7014 63.7943 10.9436 63.7265 11.0917 63.5908C11.2397 63.4687 11.3205 63.2246 11.3205 62.8855V62.2479C11.3205 61.9359 11.2532 61.7053 11.1455 61.5561ZM18.5349 61.5154C18.4138 61.3527 18.2119 61.2577 17.9562 61.2577C17.7004 61.2577 17.4985 61.3527 17.3774 61.5154C17.2428 61.6918 17.189 61.9224 17.189 62.2344V65.7612C17.189 66.0731 17.2563 66.3037 17.3774 66.4665C17.512 66.6429 17.7004 66.7242 17.9562 66.7242C18.4811 66.7242 18.7368 66.3987 18.7368 65.7612V62.2344C18.7368 61.9224 18.6695 61.6782 18.5484 61.5154H18.5349ZM22.1825 61.5561C22.0614 61.4069 21.873 61.3255 21.6038 61.3255H20.8904V63.7943H21.4288C21.7384 63.7943 21.9672 63.7265 22.1287 63.5908C22.2768 63.4687 22.3575 63.2246 22.3575 62.8855V62.2479C22.3575 61.9359 22.2902 61.7053 22.1691 61.5561H22.1825ZM22.1825 61.5561C22.0614 61.4069 21.873 61.3255 21.6038 61.3255H20.8904V63.7943H21.4288C21.7384 63.7943 21.9672 63.7265 22.1287 63.5908C22.2768 63.4687 22.3575 63.2246 22.3575 62.8855V62.2479C22.3575 61.9359 22.2902 61.7053 22.1691 61.5561H22.1825ZM18.5349 61.5154C18.4138 61.3527 18.2119 61.2577 17.9562 61.2577C17.7004 61.2577 17.4985 61.3527 17.3774 61.5154C17.2428 61.6918 17.189 61.9224 17.189 62.2344V65.7612C17.189 66.0731 17.2563 66.3037 17.3774 66.4665C17.512 66.6429 17.7004 66.7242 17.9562 66.7242C18.4811 66.7242 18.7368 66.3987 18.7368 65.7612V62.2344C18.7368 61.9224 18.6695 61.6782 18.5484 61.5154H18.5349Z"
            fill="#F9EBE8" />
    </g>
    <defs>
        <clipPath id="clip0_7_263">
            <rect width="264" height="122" fill="white" />
        </clipPath>
    </defs>
</svg>