<svg width="144" height="26" viewBox="0 0 144 26" fill="none" xmlns="http://www.w3.org/2000/svg">
<g clip-path="url(#clip0_7_355)">
<path d="M16.0045 17.3378H10.3802V22.8881H5.61091V17.3378H0V12.6497H5.62427V7.01865H10.3935V12.6497H16.0178V17.3378H16.0045Z" fill="#8CEEEE"/>
<path d="M37.7126 19.4663C37.7126 20.5036 37.4587 21.4062 36.9377 22.1741C36.7507 22.4705 36.4034 22.8746 35.8957 23.3865C35.3881 23.8984 34.9873 24.2622 34.6934 24.4777C33.7983 25.1109 32.8097 25.4207 31.7142 25.4207H26.5843C25.4487 25.4207 24.4468 25.1109 23.6051 24.4777C22.6299 23.7098 21.8818 22.942 21.3608 22.1741C20.8398 21.3523 20.5859 20.4497 20.5859 19.4663V16.1793C20.5859 14.8995 21.0669 13.7409 22.0154 12.7306C21.0669 11.6663 20.5859 10.5347 20.5859 9.36269V6.31813C20.5859 5.33471 20.8398 4.44559 21.3608 3.65078C21.7616 3.01762 22.5097 2.26321 23.6051 1.38756C24.5269 0.72746 25.5155 0.404144 26.5843 0.404144H31.7142C32.7696 0.404144 33.7582 0.72746 34.6934 1.38756C35.3747 1.83212 36.1228 2.57306 36.9377 3.65078C37.4587 4.44559 37.7126 5.33471 37.7126 6.31813V9.36269C37.7126 10.5347 37.2316 11.6663 36.2831 12.7306C37.2316 13.8487 37.7126 15.0073 37.7126 16.1793V19.4663ZM32.7429 9.40311V6.27772C32.5826 6.00829 32.3822 5.75233 32.1551 5.53679C31.928 5.32124 31.7677 5.21347 31.6875 5.21347H26.6377C26.5575 5.21347 26.3972 5.32124 26.1434 5.53679C25.9029 5.75233 25.7026 5.99482 25.569 6.2373V9.40311C25.7026 9.67254 25.8896 9.9285 26.1167 10.144C26.3438 10.3596 26.5041 10.4674 26.5843 10.4674H31.7142C31.7944 10.4674 31.9547 10.3461 32.1818 10.1171C32.4089 9.88808 32.596 9.64559 32.7296 9.40311H32.7429ZM32.7429 19.5876V16.2601C32.6093 15.9907 32.4223 15.7347 32.1952 15.5057C31.9681 15.2767 31.8078 15.1554 31.7276 15.1554H26.5976C26.5175 15.1554 26.3572 15.2767 26.1301 15.5057C25.9029 15.7347 25.7159 15.9907 25.5823 16.2601V19.5471C25.7159 19.7896 25.9029 20.0321 26.1568 20.2611C26.3972 20.4902 26.5575 20.6114 26.6511 20.6114H31.7009C31.781 20.6114 31.9414 20.5036 32.1952 20.2881C32.4356 20.0725 32.6227 19.83 32.7696 19.5876H32.7429Z" fill="#F9EBE8"/>
<path d="M60.2369 25.2187H55.2673V15.2767H47.1181V25.2187H42.1484V0.579273H47.1181V10.4808H55.2673V0.579273H60.2369V25.2187Z" fill="#F9EBE8"/>
<path d="M80.5298 9.98238C80.5298 10.9927 80.2759 11.8819 79.7549 12.6497C79.5946 12.9192 79.2606 13.3098 78.753 13.7948C78.2453 14.2933 77.8445 14.6435 77.5506 14.8591C76.6823 15.4922 75.667 15.8021 74.4913 15.8021H67.5712V25.2052H62.6016V0.579273H74.4913C75.6803 0.579273 76.709 0.889118 77.5506 1.52228C78.3655 2.15544 79.1003 2.90984 79.7549 3.78549C80.2759 4.49948 80.5298 5.40207 80.5298 6.49326V9.98238ZM75.5601 10.0228V6.37202C75.2929 5.94093 74.9322 5.60414 74.5047 5.3886H67.5846V11.0197H74.5047C74.5849 11.0197 74.7585 10.8984 75.0124 10.6694C75.2662 10.4404 75.4532 10.2249 75.5601 10.0363V10.0228Z" fill="#F9EBE8"/>
<path d="M126.059 21.7565L133.727 13.7409C134.689 12.7306 133.981 11.0466 132.591 11.0466H132.177L126.059 21.7565Z" fill="#8CEEEE"/>
<path d="M130.655 13.8756H127.903C127.649 13.8756 127.475 13.5927 127.609 13.3637L132.365 4.99793H135.117C135.37 4.99793 135.544 5.28083 135.411 5.50985L130.655 13.8756Z" fill="#8CEEEE"/>
<path d="M140.78 26H86.0332V0H140.78V7.49016H143.999V18.5098H140.78V26ZM87.1687 24.8415H139.631V17.3513H142.85V8.64871H139.631V1.15855H87.1687V24.8415Z" fill="#F9EBE8"/>
<path d="M96.5068 3.51606H89.5332V22.5378H96.5068V3.51606Z" fill="#8CEEEE"/>
<path d="M105.419 3.51606H98.4453V22.5378H105.419V3.51606Z" fill="#8CEEEE"/>
<path d="M114.329 3.51606H107.355V22.5378H114.329V3.51606Z" fill="#8CEEEE"/>
</g>
<defs>
<clipPath id="clip0_7_355">
<rect width="144" height="26" fill="white"/>
</clipPath>
</defs>
</svg>
