<?xml version="1.0" encoding="UTF-8"?>
<svg id="Layer_1" data-name="Layer 1" xmlns="http://www.w3.org/2000/svg" width="55.16" height="67.58"
    viewBox="0 0 65.16 67.58">
    <defs>
        <style>
            .cls-1,
            .cls-2,
            .cls-3 {
                fill: #8ceeee;
            }
        </style>
    </defs>
    <g id="frame">
        <path class="cls-3"
            d="m27.57,67.58c-7.06,0-14.13-2.69-19.51-8.07-10.76-10.76-10.76-28.26,0-39.01.4-.4,1.04-.4,1.44,0,.4.4.4,1.04,0,1.44C-.46,31.9-.46,48.11,9.5,58.08c9.96,9.96,26.18,9.96,36.14,0,4.83-4.83,7.49-11.24,7.49-18.07s-2.66-13.24-7.49-18.07c-.4-.4-.4-1.04,0-1.44.4-.4,1.04-.4,1.44,0,5.21,5.21,8.08,12.14,8.08,19.51s-2.87,14.3-8.08,19.51c-5.38,5.38-12.44,8.07-19.51,8.07Z" />
        <g>
            <path class="cls-3"
                d="m14.65,14.56c.74.41,1.43.91,2.08,1.49.06.06.09.1.09.11,0,.03-.03.09-.09.18l-.66.93c-.04.07-.08.1-.11.1s-.08-.03-.14-.09c-.63-.62-1.32-1.15-2.06-1.59-.07-.04-.1-.08-.1-.11,0-.04.03-.1.09-.17l.61-.79c.07-.08.12-.12.16-.12.03,0,.07.02.13.05Zm-.93,8.32c.3-.38.56-.76.76-1.16.55-1.11,1.03-2.24,1.44-3.38.29.31.55.56.79.75.21.16.32.28.32.36,0,.06-.03.17-.09.34-.46,1.22-.93,2.3-1.42,3.23-.13.26-.21.44-.24.55-.03.13-.09.19-.19.19-.08,0-.16-.03-.26-.09-.43-.26-.81-.53-1.13-.81Zm1.59-12.01c.69.4,1.4.92,2.13,1.56.06.04.09.09.09.13,0,.03-.03.09-.09.18l-.67.91c-.06.08-.1.12-.13.12-.02,0-.06-.03-.12-.08-.72-.69-1.44-1.26-2.15-1.68-.07-.04-.1-.07-.1-.1,0-.03.03-.09.1-.18l.68-.79c.06-.08.11-.12.16-.12.03,0,.07.02.11.05Zm3.93,12.51l-2.03.03c-.08,0-.12,0-.14-.03-.01-.02-.02-.06-.02-.13v-1.13c0-.08,0-.12.02-.14.02-.02.06-.03.13-.03l2.03.03h1.86v-3.11h-.98l-1.93.03c-.1,0-.15-.05-.15-.16v-1.11c0-.1.05-.16.15-.16l1.93.03h.98v-2.53h-1.27l-1.98.03c-.08,0-.12,0-.14-.03-.01-.02-.02-.06-.02-.14v-1.11c0-.08,0-.12.03-.14.02-.01.06-.02.13-.02l1.98.03h4.48l1.99-.03c.08,0,.12,0,.14.03.01.02.02.06.02.13v1.11c0,.08,0,.12-.03.14-.02.01-.06.02-.13.02l-1.99-.03h-1.63v2.53h1.24l1.93-.03c.09,0,.14,0,.16.03.01.02.02.06.02.13v1.11c0,.07,0,.12-.03.13-.02.02-.07.02-.15.02l-1.93-.03h-1.24v3.11h2.05l2.01-.03c.08,0,.12.01.14.04.01.02.02.06.02.14v1.13c0,.08,0,.12-.03.14-.02.01-.06.02-.14.02l-2.01-.03h-5.48Zm1.75-12.75c.71.3,1.54.81,2.49,1.52.07.04.1.08.1.11,0,.04-.04.1-.12.18l-.76.85c-.07.08-.12.11-.16.11s-.07-.02-.12-.07c-.63-.59-1.46-1.13-2.48-1.64-.06-.03-.09-.06-.09-.09,0-.04.04-.09.11-.16l.73-.75c.08-.07.14-.11.19-.11.03,0,.07.01.12.04Z" />
            <path class="cls-3"
                d="m29.86,20.48c.03-.07.07-.1.1-.1.02,0,.08.02.19.06l.89.36c.12.04.18.08.18.13,0,.02,0,.06-.03.11-.31.79-.84,1.62-1.59,2.48-.05.06-.09.09-.14.09s-.1-.03-.17-.09l-.84-.59c-.1-.07-.14-.13-.14-.18,0-.03.02-.08.07-.13.64-.6,1.13-1.32,1.48-2.15Zm.52-5.27l-1.83.03c-.08,0-.12,0-.14-.03-.01-.02-.02-.06-.02-.13v-.94c0-.08,0-.12.03-.14.02-.01.06-.02.13-.02l1.83.03h1.66c-.14-.38-.29-.74-.46-1.06l-1.97.03c-.09,0-.14-.01-.16-.04-.01-.02-.02-.06-.02-.14v-.88c0-.08.01-.13.04-.14.02-.01.07-.02.14-.02l1.98.03h2.4v-.1c0-.43-.03-.81-.1-1.14.51,0,1.05.02,1.62.07.15.01.22.06.22.14,0,.05-.03.15-.09.28-.04.12-.06.34-.06.65v.1h2.59l1.98-.03c.08,0,.13,0,.14.03.01.02.02.06.02.14v.88c0,.08,0,.13-.03.15-.02.01-.06.02-.14.02l-2-.03h-.19c-.07.12-.11.21-.13.25-.01.03-.07.16-.16.39-.07.17-.13.31-.19.42h1.81l1.83-.03c.08,0,.13,0,.15.03.01.02.02.06.02.13v.94c0,.08,0,.12-.03.14-.02.01-.07.02-.14.02l-1.83-.03h-8.92Zm6.89.63l2.02-.03c.08,0,.12,0,.14.03.01.02.02.06.02.14l-.03,1.16v1.51l.03,1.16c0,.08,0,.12-.02.14s-.06.02-.13.02l-2.02-.03h-4.85l-2.02.03c-.08,0-.12,0-.14-.03-.01-.02-.02-.06-.02-.14l.03-1.16v-1.51l-.03-1.16c0-.08,0-.13.03-.14.02-.01.06-.02.13-.02l2.02.03h4.85Zm-.15,5.37c.3.18.66.32,1.07.44.16.04.25.08.29.11.04.03.06.08.06.16,0,.03,0,.11-.02.24-.12.73-.37,1.19-.74,1.38-.46.22-1.43.34-2.91.34-1.31,0-2.14-.08-2.5-.25-.2-.1-.33-.24-.41-.41-.09-.18-.13-.44-.13-.79v-.92c0-.46-.02-.86-.07-1.21.62.02,1.12.05,1.48.1.18.03.26.07.26.13,0,.08-.02.15-.07.22-.06.1-.09.3-.09.61v.56c0,.3.08.48.24.54.18.07.62.1,1.33.1.99,0,1.61-.06,1.84-.18.24-.11.36-.5.38-1.16Zm.78-4.39h-6.12v.63h6.12v-.63Zm0,2.16v-.66h-6.12v.66h6.12Zm-1.53-6.03h-3.23c.14.29.28.64.41,1.06h2.41c.18-.4.32-.75.41-1.06Zm-1.28,7.16c.44.3.86.69,1.26,1.16.04.05.06.09.06.11,0,.03-.04.08-.11.15l-.66.55c-.08.07-.14.11-.19.11s-.09-.03-.15-.1c-.29-.39-.67-.8-1.16-1.23-.07-.04-.11-.07-.11-.09,0-.01.05-.06.16-.15l.57-.47c.09-.06.15-.09.19-.09s.09.02.15.06Zm4.4.18c.72.63,1.37,1.36,1.96,2.19.04.05.06.1.06.13,0,.04-.04.09-.13.15l-.91.6c-.09.06-.15.09-.19.09-.03,0-.07-.04-.12-.11-.41-.78-1.01-1.56-1.79-2.34-.05-.05-.08-.09-.08-.11s.05-.06.15-.13l.74-.48c.08-.05.13-.07.16-.07.03,0,.08.03.14.09Z" />
        </g>
    </g>
    <g id="eye">
        <path class="cls-3"
            d="m27.54,49.82c-3.37,0-6.38-.84-8.86-1.92-2.56-1.11-4.59-2.5-5.84-3.47-.73-.57-1.27-1.05-1.6-1.35-.21-.19-.34-.33-.42-.41-.16-.17-.27-.28-.27-.49s.11-.32.27-.49c.08-.08.22-.22.42-.41.32-.3.86-.78,1.6-1.35,1.25-.97,3.28-2.36,5.84-3.47,6.1-2.65,15.45-3.87,25.37,5.37.1.09.15.22.15.35s-.05.26-.15.35c-5.89,5.49-11.58,7.29-16.51,7.29Zm-15.85-7.64c.58.56,2,1.83,4.05,3.1,2.34,1.45,6.06,3.25,10.5,3.54,5.84.39,11.49-1.84,16.79-6.64-5.3-4.8-10.95-7.03-16.79-6.64-4.43.3-8.15,2.09-10.5,3.54-2.04,1.27-3.47,2.54-4.05,3.1Z" />
        <path class="cls-3"
            d="m27.38,49.61c-4.04,0-7.33-3.29-7.33-7.33s3.29-7.33,7.33-7.33,7.33,3.29,7.33,7.33-3.29,7.33-7.33,7.33Zm0-13.7c-3.51,0-6.37,2.86-6.37,6.37s2.86,6.37,6.37,6.37,6.37-2.86,6.37-6.37-2.86-6.37-6.37-6.37Z" />
        <path class="cls-2"
            d="m27.38,45.35c1.75,0,3.18-1.42,3.18-3.17s-1.43-3.18-3.18-3.18-3.18,1.43-3.18,3.18,1.43,3.17,3.18,3.17h0Z" />
    </g>
    <g id="arrow" transform="translate(0,-5)">
        <polygon class="cls-1" points="27.22 7.14 33.63 .29 21.7 .29 27.22 7.14">
            <animateTransform attributeName="transform" type="translate" values="0,0; 0,7; 0,0" begin="0s" dur="2s"
                repeatCount="indefinite" />
        </polygon>
    </g>
</svg>