<svg width="130" height="113" viewBox="0 0 130 113" fill="none" xmlns="http://www.w3.org/2000/svg">
<g clip-path="url(#clip0_7_324)">
<path d="M70.7684 77.9365L66.1674 85.8905C65.6533 86.7845 64.3481 86.7845 63.834 85.8905L59.233 77.9365C58.7189 77.0425 59.3649 75.925 60.4063 75.925H69.6214C70.6629 75.925 71.3089 77.0425 70.7947 77.9365H70.7684Z" fill="#8CEEEE"/>
<path d="M65.0057 113C64.0433 113 63.1468 112.487 62.6722 111.659L38.336 69.6143C37.7164 68.5494 38.0855 67.1689 39.1533 66.551C40.2344 65.9331 41.6054 66.3012 42.225 67.3662L65.0057 106.729L87.7863 67.3662C88.4059 66.3012 89.777 65.9331 90.858 66.551C91.9259 67.1689 92.295 68.5363 91.6754 69.6143L67.3391 111.659C66.8645 112.487 65.9681 113 65.0057 113Z" fill="#F9EBE8"/>
<path d="M112.69 31.0668C112.308 31.0668 111.926 30.9748 111.57 30.7644C110.502 30.1465 110.133 28.7792 110.752 27.7011L124.199 4.48319H5.80063L19.2475 27.7011C19.8672 28.766 19.498 30.1465 18.4302 30.7644C17.3623 31.3823 15.9781 31.0142 15.3585 29.9493L0.355948 4.03618C-0.118649 3.20791 -0.118649 2.18243 0.355948 1.35416C0.843728 0.51274 1.74019 0 2.68938 0H127.297C128.26 0 129.156 0.51274 129.631 1.34101C130.105 2.16928 130.105 3.19476 129.631 4.02304L114.628 29.9361C114.206 30.6592 113.455 31.0536 112.677 31.0536L112.69 31.0668Z" fill="#8CEEEE"/>
<path d="M40.6043 19.3921H38.0863V27.0569H36.8735V19.3921H34.3555V18.2483H40.6043V19.3921Z" fill="#F9EBE8"/>
<path d="M48.5809 27.0569H47.1835L43.4658 20.3255V27.0569H42.2793V18.2483H43.7031L47.3812 25.0454V18.2483H48.5677V27.0569H48.5809Z" fill="#F9EBE8"/>
<path d="M56.6873 25.1506H55.7118V27.0569H54.4989V25.1506H50.3594V24.1382L54.143 18.2483H55.6986V24.0068H56.6742V25.1506H56.6873ZM54.5121 24.0068V19.7865L51.8359 24.0068H54.5121Z" fill="#F9EBE8"/>
<path d="M63.9388 25.2031C63.9388 25.5055 63.8597 25.7816 63.6883 26.0446C63.6356 26.1366 63.5169 26.2681 63.3324 26.4521C63.161 26.6362 63.016 26.7545 62.9105 26.8203C62.6205 27.0306 62.2909 27.1226 61.9218 27.1226H60.2079C59.5883 27.1226 58.9819 26.7282 58.3755 25.9525C58.2964 25.8605 58.1645 25.5976 57.9668 25.1769L59.1401 24.8745L59.2851 25.1637C59.3774 25.3215 59.4961 25.4792 59.6411 25.6239C59.7993 25.7816 59.9311 25.8868 60.0497 25.9394C60.1025 25.9657 60.1684 25.9788 60.2475 25.9788H61.8954C61.9745 25.9788 62.0272 25.9788 62.0668 25.9525C62.1723 25.8999 62.2909 25.8211 62.4227 25.6896C62.5546 25.5581 62.6337 25.4398 62.6864 25.3346C62.6996 25.2952 62.7128 25.2426 62.7128 25.19V23.586C62.7128 23.494 62.7128 23.4414 62.6864 23.4283C62.5677 23.2179 62.3568 23.0207 62.0668 22.8104C62.0404 22.7972 61.9745 22.7841 61.8954 22.7841H58.4546V18.2483H63.4774V19.3921H59.6674V21.6534H61.9218C62.2909 21.6534 62.6205 21.7586 62.9105 21.9558C63.016 22.0347 63.161 22.153 63.3324 22.3239C63.5038 22.4948 63.6224 22.6263 63.6883 22.7183C63.8597 22.9681 63.9388 23.2574 63.9388 23.5598V25.2031Z" fill="#F9EBE8"/>
<path d="M71.9935 18.2483L69.2514 22.5606L72.1253 27.0569H70.7806L68.5922 23.586L66.417 27.0569H65.0723L67.9462 22.5606L65.2041 18.2483H66.5356L68.5922 21.5351L70.6751 18.2483H72.0067H71.9935Z" fill="#F9EBE8"/>
<path d="M78.9007 27.0569H73.7988V25.9788H75.8027V19.3789H74.0757V18.2351H77.0024V25.9788H78.8876V27.0569H78.9007Z" fill="#F9EBE8"/>
<path d="M86.5487 25.2294C86.5487 25.5318 86.4696 25.8079 86.2982 26.0709C86.2455 26.1629 86.1136 26.2944 85.9422 26.4653C85.7577 26.6362 85.6259 26.7677 85.5204 26.8465C85.2304 27.0569 84.9139 27.1489 84.5448 27.1489H82.8706C82.2509 27.1489 81.6445 26.7545 81.0644 25.9788C80.9853 25.8868 80.8535 25.6239 80.6558 25.2031L81.8291 24.9008C81.9214 25.0717 81.9873 25.19 82.0268 25.2426C82.1191 25.3741 82.2378 25.5318 82.396 25.6896C82.5542 25.8474 82.6992 25.9525 82.8046 26.0051C82.8442 26.0051 82.8837 26.0183 82.9233 26.0183H84.5448C84.6767 26.0183 84.8085 25.9525 84.9667 25.8079C85.1249 25.6633 85.2303 25.5318 85.3094 25.4004C85.3358 25.3478 85.349 25.2952 85.349 25.2294V23.9805C85.349 23.9805 85.349 23.8884 85.3226 23.8358C85.2699 23.7044 85.1513 23.5729 84.9931 23.4151C84.8349 23.2574 84.6898 23.1916 84.558 23.1916H82.976V22.061H84.5316C84.5976 22.061 84.6503 22.061 84.6898 22.0347C84.9008 21.9295 85.0985 21.7323 85.2963 21.4562C85.3226 21.4168 85.3358 21.351 85.3358 21.259V20.1283C85.3358 20.0626 85.3358 20.01 85.3094 19.9706C85.2567 19.8654 85.1776 19.7471 85.0458 19.6287C84.9271 19.5104 84.8085 19.4184 84.7162 19.3526C84.6898 19.3395 84.6239 19.3264 84.5185 19.3264H82.7783C82.6464 19.4052 82.5014 19.5236 82.33 19.6813C82.1587 19.8391 82.0268 19.9969 81.9609 20.1415C81.9345 20.1809 81.8818 20.273 81.8159 20.4307L80.6426 20.1283C80.8271 19.7339 80.9722 19.4841 81.0513 19.3658C81.3808 18.9188 81.6972 18.6033 82.0268 18.4061C82.2773 18.2483 82.5673 18.1694 82.8706 18.1694H84.5448C84.9139 18.1694 85.2304 18.2746 85.5204 18.4718C85.6127 18.5375 85.7577 18.669 85.9422 18.8531C86.1268 19.0371 86.2455 19.1817 86.2982 19.2606C86.4696 19.5104 86.5487 19.7865 86.5487 20.0889V21.2721C86.5487 21.4693 86.5091 21.6534 86.4432 21.8112C86.3641 21.9821 86.2982 22.1136 86.2191 22.2056C86.14 22.2976 86.0082 22.4291 85.8368 22.6C86.0082 22.7709 86.1268 22.9024 86.2191 22.9944C86.3114 23.0864 86.3905 23.2311 86.4564 23.3888C86.5223 23.5597 86.5619 23.7307 86.5619 23.9279V25.2163L86.5487 25.2294Z" fill="#F9EBE8"/>
<path d="M88.2612 25.2163L89.4345 24.9139L89.5664 25.1768C89.7246 25.4924 89.9882 25.7553 90.3574 25.9657C90.3837 25.9788 90.4365 25.992 90.5156 25.992H92.1239C92.203 25.992 92.2558 25.992 92.2821 25.9657C92.3876 25.9131 92.5062 25.8079 92.6249 25.6896C92.7435 25.5581 92.8358 25.4529 92.9017 25.3478C92.9149 25.3346 92.9281 25.2689 92.9281 25.19V23.3362C92.5853 23.6518 92.2162 23.8095 91.8207 23.8095H90.2914C89.9223 23.8095 89.5927 23.7175 89.3159 23.5203C89.2104 23.4414 89.0654 23.3231 88.894 23.1522C88.7226 22.9813 88.604 22.8498 88.5381 22.7578C88.3667 22.508 88.2876 22.2187 88.2876 21.9163V20.0889C88.2876 19.7865 88.3667 19.5104 88.5381 19.2475C88.5908 19.1554 88.7226 19.024 88.894 18.8531C89.0786 18.6821 89.2104 18.5507 89.3159 18.4718C89.6059 18.2614 89.9223 18.1694 90.2914 18.1694H92.1371C92.5062 18.1694 92.8226 18.2746 93.1127 18.4718C93.2181 18.5507 93.3631 18.6821 93.5345 18.8531C93.7059 19.024 93.8246 19.1554 93.8905 19.2475C94.0619 19.4973 94.141 19.7865 94.141 20.0889V25.2163C94.141 25.5187 94.0619 25.7948 93.8905 26.0577C93.8377 26.1497 93.7191 26.2812 93.5345 26.4521C93.35 26.623 93.2181 26.7545 93.1127 26.8334C92.8226 27.0437 92.5062 27.1358 92.1371 27.1358H90.4628C90.1596 27.1358 89.8828 27.0569 89.6191 26.8991C89.2895 26.7019 88.9731 26.3864 88.6435 25.9394C88.4722 25.729 88.3403 25.4924 88.248 25.2031L88.2612 25.2163ZM89.5136 20.102V21.8901C89.5136 21.8901 89.5136 21.9952 89.54 22.0347C89.6059 22.1661 89.7246 22.3108 89.8828 22.4685C90.041 22.6263 90.186 22.692 90.3178 22.692H91.7943C91.7943 22.692 91.8998 22.692 91.9393 22.6657C92.4667 22.4028 92.8094 22.1267 92.9413 21.8243V20.0889C92.9413 20.0889 92.9413 19.9837 92.9149 19.9443C92.8622 19.8259 92.7435 19.6945 92.5722 19.5367C92.4008 19.3789 92.2557 19.3001 92.1371 19.3001H90.331C90.1992 19.3001 90.0541 19.3789 89.8828 19.5236C89.7114 19.6813 89.6059 19.8128 89.54 19.9443C89.5136 19.9837 89.5136 20.0363 89.5136 20.0889V20.102Z" fill="#F9EBE8"/>
<path d="M14.7527 37.1013L7.60742 44.0957V53.2461C7.60742 54.219 7.8579 55.1261 8.27977 55.9281L27.5273 37.1013H14.7396H14.7527Z" fill="#F9EBE8"/>
<path d="M40.8957 37.1013H31.3246L10.0469 57.9133C10.9697 58.5575 12.0903 58.9388 13.3031 58.9388H21.78L40.8957 40.2435V37.1013Z" fill="#F9EBE8"/>
<path d="M25.5762 58.9388H38.3507L40.8951 56.4408V43.951L25.5762 58.9388Z" fill="#F9EBE8"/>
<path d="M107.246 37.1013H94.4584L92.2305 39.2838V51.7867L107.246 37.1013Z" fill="#F9EBE8"/>
<path d="M119.256 37.1013H111.03L92.2305 55.4943V58.9388H101.498L122.671 38.232C121.721 37.5221 120.548 37.1145 119.269 37.1145L119.256 37.1013Z" fill="#F9EBE8"/>
<path d="M124.359 40.2698L105.27 58.9388H118.057L124.952 52.1943V42.7941C124.952 41.8869 124.741 41.0323 124.359 40.2698Z" fill="#F9EBE8"/>
<path d="M53.4051 58.6496H48.0527V37.6667H53.4051V46.6856H53.682L60.6823 37.6667H66.4302L59.153 46.9354L66.852 58.6496H60.5636L55.2508 50.38L53.4051 52.7202V58.6496Z" fill="#8CEEEE"/>
<path d="M69.251 44.0957C69.251 42.0052 70.0024 40.3224 71.4921 39.034C72.9818 37.7456 74.9593 37.1013 77.3982 37.1013C79.8371 37.1013 81.6432 37.6798 83.0934 38.8236C84.5304 39.9674 85.2554 41.4662 85.2554 43.3331C85.2554 44.4901 84.8731 45.6602 84.1085 46.8171C83.3439 47.9741 82.0255 49.3808 80.1535 51.0374L76.6863 54.219V54.4951H85.5455V58.6496H69.5542V55.0867L76.1985 48.8549C77.741 47.435 78.7693 46.3833 79.2834 45.6865C79.8108 44.9897 80.0744 44.3323 80.0744 43.7144C80.0744 42.9387 79.8108 42.3208 79.2834 41.8475C78.7561 41.3742 78.0574 41.1375 77.2005 41.1375C76.3436 41.1375 75.5658 41.4136 74.9857 41.9658C74.4188 42.518 74.1288 43.2279 74.1288 44.0825V44.1877H69.2246V44.0957H69.251Z" fill="#8CEEEE"/>
</g>
<defs>
<clipPath id="clip0_7_324">
<rect width="130" height="113" fill="white"/>
</clipPath>
</defs>
</svg>
