<svg width="291" height="121" viewBox="0 0 291 121" fill="none" xmlns="http://www.w3.org/2000/svg">
<g clip-path="url(#clip0_7_368)">
<path d="M52.2925 121H10.7689C4.82926 121 0 116.165 0 110.219V103.657C0 97.7107 4.82926 92.876 10.7689 92.876H52.2925C58.2321 92.876 63.0614 97.7107 63.0614 103.657V110.219C63.0614 116.165 58.2321 121 52.2925 121ZM10.7689 93.9073C5.40449 93.9073 1.03006 98.2866 1.03006 103.657V110.219C1.03006 115.589 5.40449 119.969 10.7689 119.969H52.2925C57.6569 119.969 62.0313 115.589 62.0313 110.219V103.657C62.0313 98.2866 57.6569 93.9073 52.2925 93.9073H10.7689Z" fill="#F9EBE8"/>
<path d="M31.5297 110.889C31.5297 111.612 31.3692 112.215 31.0347 112.697C30.8207 112.991 30.4863 113.366 30.0314 113.835C29.5766 114.304 29.1887 114.639 28.881 114.826H28.9077C28.2924 115.201 27.6502 115.375 27.0215 115.375H23.5835C22.928 115.375 22.2859 115.188 21.6571 114.826C21.3628 114.652 20.9883 114.331 20.5334 113.848C20.0786 113.366 19.7442 112.991 19.5301 112.697C19.1957 112.215 19.0352 111.612 19.0352 110.889V102.117C19.0352 101.38 19.1957 100.764 19.5301 100.282C19.7442 99.9874 20.0786 99.6124 20.5334 99.1437C20.9883 98.6749 21.3628 98.3535 21.6571 98.1794C22.2725 97.8044 22.9146 97.6303 23.5835 97.6303H27.0215C27.6636 97.6303 28.2924 97.8178 28.9077 98.1794H28.881C29.1887 98.3535 29.5632 98.6749 30.0181 99.1303C30.4595 99.5856 30.8073 99.974 31.0347 100.282C31.3692 100.764 31.5297 101.38 31.5297 102.117V110.889ZM27.9713 110.889V102.117C27.7171 101.648 27.3827 101.286 26.9546 101.032H23.6638C23.2357 101.34 22.8745 101.715 22.5802 102.144V110.889C22.928 111.411 23.2758 111.773 23.6236 111.974H26.9145C27.2891 111.746 27.6369 111.384 27.9579 110.889H27.9713Z" fill="#8CEEEE"/>
<path d="M34.2335 116.567V102.545H31.0898V96.4116H40.4808V116.567H34.2335Z" fill="#8CEEEE"/>
<path d="M39.1429 97.7375V115.228H35.5578V101.206H32.4141V97.7375H39.1429ZM41.805 95.0724H29.752V103.885H32.8957V117.906H41.805V95.0858V95.0724Z" fill="#231D1D"/>
<path d="M16.8952 103.429L16.4136 106.134H14.0191L13.7381 107.675H16.1327L15.6511 110.353H13.2565L12.7482 113.058H9.96568L10.474 110.353H9.31019L8.80184 113.058H6.01933L6.50092 110.353H4.14648L4.62807 107.675H7.02264L7.30357 106.134H4.909L5.39059 103.429H7.78516L8.26674 100.845H11.0493L10.5677 103.429H11.7315L12.2131 100.845H14.9956L14.514 103.429H16.9086H16.8952ZM11.2365 106.134H10.0727L9.79177 107.675H10.9556L11.2365 106.134Z" fill="#8CEEEE"/>
<path d="M43.9033 100.322C43.9033 100.456 43.8766 100.577 43.8097 100.67C43.7696 100.737 43.7027 100.804 43.609 100.898C43.5154 100.992 43.4485 101.045 43.3816 101.086C43.2478 101.153 43.1274 101.193 43.0204 101.193H41.375V97.7375H43.0204C43.1676 97.7375 43.288 97.7777 43.395 97.8446C43.5154 97.925 43.6492 98.0589 43.7963 98.2598C43.8632 98.3535 43.89 98.4741 43.89 98.6214V100.322H43.9033ZM43.2077 100.295V98.6482C43.1676 98.5544 43.1007 98.4741 42.9937 98.4071H42.084V100.51H42.9937C43.0873 100.456 43.1542 100.389 43.2077 100.295Z" fill="#F9EBE8"/>
<path d="M47.1022 100.336C47.1022 100.483 47.0754 100.603 47.0085 100.697C46.9818 100.737 46.9149 100.804 46.8212 100.898C46.7276 100.992 46.6607 101.059 46.6206 101.086C46.5002 101.166 46.353 101.206 46.1925 101.206H45.3631C45.0955 101.206 44.8547 101.045 44.6139 100.724C44.6006 100.711 44.5471 100.617 44.4668 100.456L45.149 100.269C45.2026 100.389 45.2694 100.47 45.3631 100.523H46.2192C46.2192 100.523 46.2728 100.483 46.2995 100.456C46.3263 100.429 46.353 100.403 46.3798 100.376C46.3931 100.349 46.4065 100.336 46.4065 100.336V99.9606C46.2594 99.9204 46.032 99.8535 45.7243 99.7731C45.4166 99.6794 45.1758 99.6124 45.0153 99.5722C44.8681 99.5321 44.7477 99.4517 44.6675 99.3178C44.5872 99.1972 44.5471 99.0499 44.5471 98.9026V98.5812C44.5471 98.4339 44.5738 98.3133 44.6407 98.2196C44.6675 98.1794 44.7343 98.1125 44.828 98.0187C44.9216 97.925 44.9885 97.858 45.0286 97.8312C45.1624 97.7375 45.2962 97.6973 45.4567 97.6973H46.1925C46.3396 97.6973 46.4868 97.7509 46.6206 97.8446C46.7543 97.9384 46.8614 98.0589 46.9416 98.166C46.9951 98.2598 47.0486 98.3535 47.0754 98.4205L46.4065 98.608C46.353 98.5142 46.2728 98.4205 46.1657 98.3669H45.4835C45.4835 98.3669 45.4166 98.4071 45.3765 98.4473C45.3363 98.4875 45.3096 98.5142 45.2828 98.541C45.2561 98.5678 45.2427 98.5812 45.2427 98.5812V98.916C45.43 98.9696 45.6841 99.0365 46.0052 99.1303C46.3263 99.224 46.5403 99.2776 46.6473 99.3178C46.7945 99.358 46.9149 99.4517 46.9951 99.5722C47.0754 99.7062 47.1155 99.8401 47.1155 99.9874V100.336H47.1022Z" fill="#F9EBE8"/>
<path d="M50.0572 100.443H49.6826V101.193H49.2144V100.443H47.5957V100.041L49.0672 97.7375H49.6692V99.9874H50.0438V100.429L50.0572 100.443ZM49.201 100.001V98.3535L48.1576 100.001H49.201Z" fill="#F9EBE8"/>
<path d="M43.5557 108.09H41.5625V107.675H42.3384V105.09H41.6695V104.648H42.8066V107.675H43.5424V108.09H43.5557Z" fill="#F9EBE8"/>
<path d="M46.5258 105.023L45.0276 108.09H44.5058L45.9907 105.09H44.2383V104.648H46.5258V105.036V105.023Z" fill="#F9EBE8"/>
<path d="M49.4829 105.023L47.9846 108.09H47.4629L48.9478 105.09H47.1953V104.648H49.4829V105.036V105.023Z" fill="#F9EBE8"/>
<path d="M52.6001 107.34H52.2256V108.09H51.7573V107.34H50.1387V106.938L51.6102 104.635H52.2122V106.884H52.5868V107.326L52.6001 107.34ZM51.744 106.898V105.251L50.7005 106.898H51.744Z" fill="#F9EBE8"/>
<path d="M55.3827 107.38C55.3827 107.501 55.3559 107.608 55.289 107.701C55.2623 107.742 55.2221 107.782 55.1419 107.862C55.0616 107.942 55.0215 107.983 54.9813 108.009C54.8743 108.09 54.7405 108.13 54.6068 108.13H53.9513C53.7105 108.13 53.4697 107.983 53.2423 107.675C53.2155 107.634 53.162 107.541 53.0817 107.367L53.5366 107.246C53.5767 107.313 53.6035 107.353 53.6168 107.38C53.657 107.434 53.6971 107.487 53.764 107.554C53.8309 107.621 53.8844 107.661 53.9245 107.675C53.9379 107.675 53.9513 107.675 53.9647 107.675H54.5934C54.5934 107.675 54.7004 107.648 54.7539 107.594C54.8074 107.541 54.8609 107.487 54.8877 107.434C54.8877 107.42 54.9011 107.393 54.9011 107.367V106.884C54.9011 106.884 54.9011 106.844 54.9011 106.831C54.8743 106.777 54.8342 106.724 54.7673 106.67C54.7004 106.617 54.6469 106.576 54.5934 106.576H53.978V106.135H54.58C54.58 106.135 54.6335 106.135 54.6469 106.135C54.7272 106.094 54.8074 106.014 54.8877 105.907C54.8877 105.893 54.9011 105.867 54.9011 105.826V105.385C54.9011 105.385 54.9011 105.331 54.9011 105.318C54.8877 105.277 54.8476 105.224 54.7941 105.184C54.7405 105.13 54.7004 105.103 54.6603 105.077C54.6603 105.077 54.6201 105.077 54.58 105.077H53.8978C53.8978 105.077 53.7907 105.157 53.7239 105.224C53.657 105.291 53.6035 105.344 53.5767 105.411C53.5767 105.425 53.5499 105.465 53.5232 105.532L53.0684 105.411C53.1352 105.264 53.1888 105.157 53.2289 105.117C53.3493 104.943 53.4831 104.822 53.6035 104.742C53.6971 104.675 53.8175 104.648 53.9245 104.648H54.58C54.7272 104.648 54.8476 104.688 54.9546 104.768C54.9947 104.795 55.0482 104.849 55.1151 104.916C55.182 104.983 55.2355 105.036 55.2623 105.077C55.3292 105.17 55.3559 105.277 55.3559 105.398V105.867C55.3559 105.947 55.3425 106.014 55.3158 106.081C55.289 106.148 55.2623 106.201 55.2221 106.228C55.1954 106.268 55.1419 106.322 55.075 106.376C55.1419 106.443 55.1954 106.496 55.2221 106.536C55.2623 106.576 55.289 106.63 55.3158 106.697C55.3425 106.764 55.3559 106.831 55.3559 106.911V107.42L55.3827 107.38Z" fill="#F9EBE8"/>
<path d="M43.5967 114.264C43.5967 114.384 43.57 114.491 43.5031 114.585C43.4763 114.625 43.4362 114.665 43.3693 114.746C43.3024 114.813 43.2489 114.866 43.2088 114.893C43.1018 114.973 42.968 115.014 42.8342 115.014H42.1118C41.9647 115.014 41.8443 114.973 41.7373 114.893C41.6971 114.866 41.6436 114.813 41.5767 114.746C41.5098 114.679 41.4563 114.625 41.4296 114.585C41.3627 114.491 41.3359 114.371 41.3359 114.264V113.768C41.3359 113.661 41.3627 113.567 41.4028 113.5C41.443 113.433 41.5232 113.34 41.6169 113.246C41.55 113.179 41.4965 113.125 41.4697 113.085C41.4296 113.045 41.4028 112.991 41.3761 112.924C41.3493 112.857 41.3359 112.79 41.3359 112.71V112.255C41.3359 112.134 41.3627 112.027 41.4296 111.933C41.4563 111.893 41.4965 111.853 41.5767 111.773C41.657 111.692 41.6971 111.652 41.7373 111.625C41.8443 111.545 41.9781 111.505 42.1118 111.505H42.8342C42.9814 111.505 43.1018 111.545 43.2088 111.625C43.2489 111.652 43.3024 111.706 43.3693 111.773C43.4362 111.84 43.4897 111.893 43.5031 111.933C43.57 112.027 43.5967 112.148 43.5967 112.255V112.71C43.5967 112.817 43.57 112.911 43.5298 112.978C43.4897 113.045 43.4094 113.139 43.3158 113.232C43.3827 113.299 43.4362 113.353 43.463 113.393C43.5031 113.433 43.5298 113.487 43.5566 113.554C43.5834 113.621 43.5967 113.688 43.5967 113.768V114.264ZM43.1285 112.71V112.268C43.1285 112.268 43.1285 112.215 43.1285 112.201C43.1018 112.148 43.0616 112.094 42.9947 112.041C42.9279 111.987 42.8743 111.947 42.8208 111.947H42.1118C42.1118 111.947 42.0048 111.974 41.9379 112.027C41.871 112.081 41.8309 112.134 41.8041 112.188C41.8041 112.188 41.8041 112.215 41.8041 112.255V112.697C41.8041 112.697 41.8041 112.75 41.8041 112.764C41.8309 112.804 41.871 112.857 41.9245 112.924C41.9914 112.991 42.0316 113.018 42.0717 113.018H42.8075C42.8075 113.018 42.9145 112.991 42.9814 112.924C43.0483 112.857 43.0884 112.804 43.1151 112.764C43.1151 112.764 43.1151 112.737 43.1151 112.697L43.1285 112.71ZM43.1285 114.264V113.782C43.1285 113.782 43.1285 113.741 43.1285 113.728C43.1018 113.688 43.0616 113.634 42.9947 113.567C42.9279 113.5 42.8743 113.474 42.8208 113.474H42.1118C42.1118 113.474 42.0048 113.5 41.9513 113.554C41.8844 113.607 41.8443 113.661 41.8175 113.715C41.8175 113.715 41.8175 113.741 41.8175 113.768V114.25V114.304C41.8443 114.357 41.8978 114.411 41.9513 114.465C42.0182 114.518 42.0717 114.545 42.1118 114.545H42.8208C42.8208 114.545 42.9279 114.518 42.9947 114.451C43.0616 114.384 43.1018 114.331 43.1285 114.29C43.1285 114.29 43.1285 114.264 43.1285 114.237V114.264Z" fill="#F9EBE8"/>
<path d="M46.5532 112.657C46.5532 112.777 46.513 112.898 46.4328 113.005C46.3525 113.112 46.2589 113.192 46.1518 113.246L44.9479 113.862C44.8542 113.915 44.8007 113.982 44.8007 114.063V114.545H46.4997V114.987H44.3325V114.023C44.3325 113.782 44.4663 113.581 44.7338 113.447L45.9512 112.831C46.0314 112.79 46.0716 112.724 46.0716 112.63V112.268C46.0716 112.268 46.0716 112.215 46.0716 112.201C46.0448 112.148 46.0047 112.094 45.9378 112.041C45.8709 111.987 45.8174 111.947 45.7639 111.947H45.1352C45.1352 111.947 45.095 111.947 45.0683 111.96C45.0148 111.987 44.9613 112.027 44.9077 112.094C44.8409 112.161 44.8007 112.215 44.774 112.268L44.7205 112.389L44.2656 112.255C44.3191 112.134 44.3726 112.027 44.4262 111.96C44.6536 111.652 44.8944 111.491 45.1352 111.491H45.7773C45.9244 111.491 46.0448 111.532 46.1652 111.612C46.2054 111.639 46.2589 111.692 46.3258 111.759C46.3926 111.826 46.4462 111.88 46.4595 111.92C46.5264 112.014 46.5532 112.134 46.5532 112.241V112.63V112.657Z" fill="#F9EBE8"/>
<path d="M49.4965 112.657C49.4965 112.777 49.4564 112.898 49.3761 113.005C49.2959 113.112 49.2022 113.192 49.0952 113.246L47.8912 113.862C47.7976 113.915 47.7441 113.982 47.7441 114.063V114.545H49.443V114.987H47.2759V114.023C47.2759 113.782 47.4096 113.581 47.6772 113.447L48.8945 112.831C48.9748 112.79 49.0149 112.724 49.0149 112.63V112.268C49.0149 112.268 49.0149 112.215 49.0149 112.201C48.9882 112.148 48.9481 112.094 48.8812 112.041C48.8143 111.987 48.7608 111.947 48.7073 111.947H48.0785C48.0785 111.947 48.0384 111.947 48.0116 111.96C47.9581 111.987 47.9046 112.027 47.8511 112.094C47.7842 112.161 47.7441 112.215 47.7173 112.268L47.6638 112.389L47.209 112.255C47.2625 112.134 47.316 112.027 47.3695 111.96C47.5969 111.652 47.8377 111.491 48.0785 111.491H48.7206C48.8678 111.491 48.9882 111.532 49.1086 111.612C49.1487 111.639 49.2022 111.692 49.2691 111.759C49.336 111.826 49.3895 111.88 49.4029 111.92C49.4698 112.014 49.4965 112.134 49.4965 112.241V112.63V112.657Z" fill="#F9EBE8"/>
<path d="M51.477 113.768H50.166V113.353H51.477V113.768Z" fill="#F9EBE8"/>
<path d="M54.3924 114.264C54.3924 114.384 54.3657 114.491 54.2988 114.585C54.272 114.625 54.2319 114.679 54.165 114.746C54.0981 114.813 54.0446 114.866 54.0045 114.893C53.8975 114.973 53.7637 115.014 53.6165 115.014H52.9477C52.7069 115.014 52.4661 114.866 52.2387 114.558C52.2119 114.518 52.1584 114.424 52.0781 114.25L52.533 114.13L52.5865 114.25C52.5865 114.25 52.6667 114.371 52.7336 114.438C52.7871 114.491 52.8406 114.545 52.8942 114.558C52.9075 114.558 52.9343 114.572 52.9744 114.572H53.6165C53.6165 114.572 53.67 114.572 53.6834 114.572C53.7236 114.558 53.7771 114.518 53.8172 114.465C53.8707 114.411 53.8975 114.371 53.9242 114.331C53.9242 114.317 53.9242 114.29 53.9242 114.277V113.648C53.9242 113.648 53.9242 113.594 53.9242 113.581C53.8841 113.5 53.8038 113.42 53.6834 113.34C53.6834 113.34 53.6433 113.34 53.6165 113.34H52.2788V111.558H54.2319V112H52.747V112.884H53.6299C53.7771 112.884 53.8975 112.924 54.0179 113.005C54.058 113.032 54.1115 113.085 54.1784 113.152C54.2453 113.219 54.2988 113.273 54.3122 113.299C54.379 113.393 54.4058 113.514 54.4058 113.621V114.264H54.3924Z" fill="#F9EBE8"/>
<path d="M227.041 118.817V105.639H243.268V107.407H228.793V111.357H241.515V113.112H228.793V117.063H243.268V118.817H227.041Z" fill="#F9EBE8"/>
<path d="M207.617 118.817V105.639H221.209C223.148 105.639 224.727 107.219 224.727 109.161V111.786C224.727 113.728 223.148 115.308 221.209 115.308H209.37V118.817H207.617ZM222.975 111.786V109.161C222.975 108.17 222.199 107.407 221.209 107.407H209.37V113.554H221.209C222.199 113.554 222.975 112.777 222.975 111.786Z" fill="#F9EBE8"/>
<path d="M196.461 118.817V112.724L188.568 105.639H191.217L197.344 111.17L203.471 105.639H206.106L198.214 112.724V118.817H196.461Z" fill="#F9EBE8"/>
<path d="M177.504 118.817V107.407H169.611V105.639H187.149V107.407H179.256V118.817H177.504Z" fill="#F9EBE8"/>
<path d="M152.944 118.817C151.018 118.817 149.439 117.237 149.439 115.308V109.161C149.439 107.219 151.018 105.639 152.944 105.639H164.355C166.282 105.639 167.86 107.219 167.86 109.161V115.308C167.86 117.237 166.282 118.817 164.355 118.817H152.944ZM166.108 115.308V109.161C166.108 108.17 165.345 107.407 164.355 107.407H152.944C151.968 107.407 151.192 108.17 151.192 109.161V115.308C151.192 116.286 151.968 117.063 152.944 117.063H164.355C165.345 117.063 166.108 116.286 166.108 115.308Z" fill="#F9EBE8"/>
<path d="M138.068 118.817V107.407H130.176V105.639H147.714V107.407H139.821V118.817H138.068Z" fill="#F9EBE8"/>
<path d="M113.507 118.817C111.58 118.817 110.002 117.237 110.002 115.308V109.161C110.002 107.219 111.58 105.639 113.507 105.639H124.918C126.844 105.639 128.423 107.219 128.423 109.161V115.308C128.423 117.237 126.844 118.817 124.918 118.817H113.507ZM126.67 115.308V109.161C126.67 108.17 125.908 107.407 124.918 107.407H113.507C112.53 107.407 111.754 108.17 111.754 109.161V115.308C111.754 116.286 112.53 117.063 113.507 117.063H124.918C125.908 117.063 126.67 116.286 126.67 115.308Z" fill="#F9EBE8"/>
<path d="M105.909 118.817L103.581 114.424H92.4243V118.817H90.6719V105.639H104.263C106.19 105.639 107.768 107.219 107.768 109.161V110.916C107.768 112.456 106.752 113.795 105.36 114.25L107.782 118.817H105.922H105.909ZM106.016 110.916V109.161C106.016 108.17 105.24 107.407 104.25 107.407H92.4109V112.67H104.25C105.24 112.67 106.016 111.893 106.016 110.916Z" fill="#F9EBE8"/>
<path d="M71.2344 118.817V105.639H84.8259C86.7656 105.639 88.3442 107.219 88.3442 109.161V111.786C88.3442 113.728 86.7656 115.308 84.8259 115.308H72.9868V118.817H71.2344ZM86.5917 111.786V109.161C86.5917 108.17 85.8158 107.407 84.8259 107.407H72.9868V113.554H84.8259C85.8158 113.554 86.5917 112.777 86.5917 111.786Z" fill="#F9EBE8"/>
<path d="M4.22638 92.3939L1.64453 91.269L41.4024 0L43.9842 1.11157L4.22638 92.3939Z" fill="#8CEEEE"/>
<path d="M11.9451 92.3939L9.36328 91.269L49.1211 0L51.703 1.11157L11.9451 92.3939Z" fill="#8CEEEE"/>
<path d="M19.6639 92.3939L17.082 91.269L56.8399 0L59.4217 1.11157L19.6639 92.3939Z" fill="#8CEEEE"/>
<path d="M27.3826 92.3939L24.8008 91.269L64.5586 0L67.1405 1.11157L27.3826 92.3939Z" fill="#8CEEEE"/>
<path d="M35.1014 92.3939L32.5195 91.269L72.2774 0L74.8592 1.11157L35.1014 92.3939Z" fill="#8CEEEE"/>
<path d="M42.8201 92.3939L40.2383 91.269L79.9961 0L82.578 1.11157L42.8201 92.3939Z" fill="#8CEEEE"/>
<path d="M50.5389 92.3939L47.957 91.269L87.7149 0L90.2967 1.11157L50.5389 92.3939Z" fill="#8CEEEE"/>
<path d="M58.2576 92.3939L55.6758 91.269L95.4336 0L98.0155 1.11157L58.2576 92.3939Z" fill="#8CEEEE"/>
<path d="M65.9764 92.3939L63.3945 91.269L103.152 0L105.734 1.11157L65.9764 92.3939Z" fill="#8CEEEE"/>
<path d="M73.254 93.2108L70.6855 92.0993L110.871 0L113.453 1.11157L73.254 93.2108Z" fill="#8CEEEE"/>
<path d="M76.84 102.894L74.2715 101.769L118.591 0L121.173 1.11157L76.84 102.894Z" fill="#8CEEEE"/>
<path d="M84.5587 102.894L81.9902 101.769L126.31 0L128.892 1.11157L84.5587 102.894Z" fill="#8CEEEE"/>
<path d="M92.2775 102.894L89.709 101.769L134.042 0L136.61 1.11157L92.2775 102.894Z" fill="#8CEEEE"/>
<path d="M99.9962 102.894L97.4277 101.769L141.761 0L144.329 1.11157L99.9962 102.894Z" fill="#8CEEEE"/>
<path d="M107.715 102.894L105.146 101.769L149.479 0L152.048 1.11157L107.715 102.894Z" fill="#8CEEEE"/>
<path d="M115.434 102.894L112.865 101.769L157.198 0L159.767 1.11157L115.434 102.894Z" fill="#8CEEEE"/>
<path d="M123.166 102.894L120.584 101.769L164.917 0L167.485 1.11157L123.166 102.894Z" fill="#8CEEEE"/>
<path d="M130.885 102.894L128.303 101.769L172.636 0L175.204 1.11157L130.885 102.894Z" fill="#8CEEEE"/>
<path d="M138.603 102.894L136.021 101.769L180.354 0L182.923 1.11157L138.603 102.894Z" fill="#8CEEEE"/>
<path d="M146.322 102.894L143.74 101.769L188.073 0L190.642 1.11157L146.322 102.894Z" fill="#8CEEEE"/>
<path d="M154.041 102.894L151.459 101.769L195.792 0L198.374 1.11157L154.041 102.894Z" fill="#8CEEEE"/>
<path d="M161.76 102.894L159.178 101.769L203.511 0L206.093 1.11157L161.76 102.894Z" fill="#8CEEEE"/>
<path d="M169.478 102.894L166.896 101.769L211.229 0L213.811 1.11157L169.478 102.894Z" fill="#8CEEEE"/>
<path d="M177.197 102.894L174.615 101.769L218.948 0L221.53 1.11157L177.197 102.894Z" fill="#8CEEEE"/>
<path d="M184.916 102.894L182.334 101.769L226.667 0L229.249 1.11157L184.916 102.894Z" fill="#8CEEEE"/>
<path d="M192.635 102.894L190.053 101.769L234.386 0L236.967 1.11157L192.635 102.894Z" fill="#8CEEEE"/>
<path d="M200.353 102.894L197.771 101.769L242.104 0L244.686 1.11157L200.353 102.894Z" fill="#8CEEEE"/>
<path d="M208.072 102.894L205.49 101.769L249.823 0L252.405 1.11157L208.072 102.894Z" fill="#8CEEEE"/>
<path d="M215.791 102.894L213.209 101.769L257.542 0L260.124 1.11157L215.791 102.894Z" fill="#8CEEEE"/>
<path d="M223.51 102.894L220.941 101.769L265.261 0L267.843 1.11157L223.51 102.894Z" fill="#8CEEEE"/>
<path d="M231.229 102.894L228.66 101.769L272.98 0L275.562 1.11157L231.229 102.894Z" fill="#8CEEEE"/>
<path d="M238.947 102.894L236.379 101.769L280.698 0L283.28 1.11157L238.947 102.894Z" fill="#8CEEEE"/>
<path d="M246.666 102.894L244.098 101.769L288.417 0L290.999 1.11157L246.666 102.894Z" fill="#8CEEEE"/>
</g>
<defs>
<clipPath id="clip0_7_368">
<rect width="291" height="121" fill="white"/>
</clipPath>
</defs>
</svg>
