<?xml version="1.0" encoding="UTF-8"?>
<svg id="radar-background" xmlns="http://www.w3.org/2000/svg" width="518" height="209.17" viewBox="0 0 518 209.17">
    <defs>
        <style>
            .cls-1 {
                fill: #2BF0FB;
                opacity: .4;
            }

            .cls-2 {
                fill: #2BF0FB;
                opacity: .4;
            }
        </style>
    </defs>
    <g id="grid" class="cls-1">
        <path class="cls-2" d="m518,209.17H0V0h518v209.17ZM.62,208.54h516.77V.63H.62v207.91Z" />
        <rect class="cls-2" x=".31" y="173.79" width="517.38" height=".63" />
        <rect class="cls-2" x=".31" y="139.03" width="517.38" height=".63" />
        <rect class="cls-2" x=".31" y="104.28" width="517.38" height=".63" />
        <rect class="cls-2" x=".31" y="69.52" width="517.38" height=".63" />
        <rect class="cls-2" x=".31" y="34.76" width="517.38" height=".63" />
        <rect class="cls-2" x="431.15" y=".32" width=".62" height="208.54" />
        <rect class="cls-2" x="344.92" y=".32" width=".62" height="208.54" />
        <rect class="cls-2" x="258.69" y=".32" width=".62" height="208.54" />
        <rect class="cls-2" x="172.46" y=".32" width=".62" height="208.54" />
        <rect class="cls-2" x="86.23" y=".32" width=".62" height="208.54" />
    </g>
    <g id="radial">
        <g>
            <path class="cls-2"
                d="m518,209.17H0l.02-112.96c3.73-9.02,7.98-17.94,12.62-26.52,6.51-12.08,13.96-23.79,22.15-34.81C43.98,22.51,54.26,10.8,65.35.09l.09-.09h381.48l.09.09c11.09,10.73,21.37,22.44,30.55,34.8,8.19,11.02,15.64,22.73,22.15,34.81,6.02,11.13,11.36,22.83,15.87,34.78.85,2.21,1.66,4.42,2.4,6.58l.02.11v98.01ZM.62,208.54h516.77v-97.33c-.74-2.14-1.54-4.33-2.38-6.51-4.5-11.93-9.83-23.61-15.84-34.71-6.49-12.05-13.93-23.74-22.1-34.73-9.13-12.3-19.36-23.95-30.39-34.63H65.68c-11.03,10.67-21.26,22.32-30.4,34.63-8.17,10.99-15.61,22.68-22.1,34.73-4.62,8.54-8.84,17.43-12.56,26.4v112.14Z" />
            <path class="cls-2"
                d="m488.03,209.17H24.32v-.3c-.02-.33-.02-.68-.02-1.01,0-11.32.78-22.69,2.32-33.79,1.62-11.77,4.13-23.48,7.45-34.82,3.47-11.87,7.9-23.58,13.19-34.8,2.49-5.28,5.19-10.53,8.04-15.59,3.72-6.6,7.78-13.06,12.06-19.2,5.78-8.3,12.15-16.32,18.96-23.83,3.55-3.9,7.13-7.59,10.65-10.99C110.89,21.33,126.43,9.62,143.15.04l.07-.04h225.91l.07.04c16.73,9.59,32.26,21.3,46.18,34.8,5.66,5.46,11.15,11.33,16.31,17.46,4.71,5.6,9.18,11.44,13.3,17.35,4.27,6.11,8.32,12.58,12.06,19.21,2.87,5.09,5.58,10.34,8.04,15.58,5.28,11.22,9.72,22.93,13.18,34.8,3.32,11.33,5.83,23.04,7.45,34.82,1.54,11.1,2.32,22.47,2.32,33.79,0,.33,0,.68-.01,1.01v.3Zm-463.12-.63h462.52c0-.23,0-.46,0-.68,0-11.29-.78-22.63-2.31-33.7-1.62-11.74-4.12-23.43-7.43-34.72-3.46-11.84-7.88-23.52-13.15-34.71-2.46-5.23-5.16-10.46-8.02-15.54-3.73-6.62-7.78-13.06-12.03-19.16-4.1-5.9-8.56-11.72-13.26-17.31-5.14-6.11-10.62-11.97-16.26-17.42-13.86-13.45-29.34-25.12-45.99-34.67h-225.59c-16.65,9.55-32.12,21.22-46,34.67-3.51,3.38-7.08,7.07-10.62,10.96-6.78,7.49-13.15,15.49-18.91,23.77-4.27,6.13-8.32,12.57-12.03,19.15-2.84,5.05-5.54,10.28-8.02,15.55-5.27,11.19-9.69,22.87-13.15,34.71-3.31,11.31-5.81,22.99-7.43,34.72-1.53,11.08-2.31,22.41-2.31,33.7,0,.22,0,.45,0,.68Z" />
            <path class="cls-2"
                d="m441.75,209.17H70.61v-1.31c0-11.34.98-22.71,2.91-33.8,2.07-11.89,5.26-23.61,9.49-34.83,1.08-2.86,2.14-5.49,3.25-8.06,2.71-6.33,5.79-12.57,9.16-18.53,1.51-2.68,3.16-5.45,4.91-8.22,8.01-12.69,17.49-24.39,28.19-34.8,13.16-12.79,28-23.5,44.11-31.84,2.07-1.07,4.11-2.08,6.07-2.99,4.49-2.13,9.19-4.11,13.98-5.9,20.3-7.58,41.66-11.42,63.5-11.42.91,0,1.82.01,2.73.02h.1c20.82.31,41.23,4.14,60.66,11.4,4.82,1.8,9.53,3.78,13.99,5.9,4.03,1.9,7.98,3.93,11.72,6.05,13.94,7.84,26.88,17.52,38.46,28.77,10.72,10.44,20.21,22.15,28.19,34.8,1.75,2.77,3.4,5.54,4.91,8.22,4.76,8.45,8.94,17.4,12.4,26.6.85,2.24,1.66,4.53,2.41,6.8,3.03,9.03,5.41,18.46,7.08,28.03,1.93,11.08,2.91,22.46,2.91,33.8v1.31Zm-370.52-.63h369.9v-.68c0-11.31-.98-22.64-2.9-33.69-1.66-9.53-4.04-18.93-7.06-27.93-.74-2.26-1.55-4.54-2.4-6.78-3.45-9.17-7.61-18.09-12.36-26.51-1.5-2.67-3.15-5.42-4.9-8.19-7.96-12.61-17.42-24.28-28.1-34.69-11.54-11.22-24.44-20.87-38.33-28.68-3.73-2.11-7.66-4.14-11.68-6.03-4.45-2.11-9.14-4.09-13.95-5.88-19.37-7.23-39.71-11.05-60.46-11.36h-.1c-22.7-.3-44.94,3.49-66.01,11.36-4.77,1.78-9.46,3.76-13.93,5.88-1.96.91-3.99,1.91-6.05,2.98-16.06,8.31-30.85,18.99-43.97,31.73-10.66,10.37-20.12,22.04-28.1,34.69-1.74,2.76-3.39,5.51-4.89,8.19-3.35,5.95-6.42,12.16-9.13,18.47-1.1,2.56-2.16,5.19-3.23,8.04-4.21,11.18-7.39,22.86-9.46,34.71-1.93,11.05-2.9,22.39-2.9,33.69v.68Z" />
            <path class="cls-2"
                d="m395.4,209.17H116.94v-.3c-.02-.33-.02-.68-.02-1.01,0-11.44,1.32-22.82,3.93-33.82,2.87-12.17,7.29-23.89,13.16-34.85.49-.94,1.01-1.87,1.53-2.8,6.67-11.83,14.95-22.61,24.61-32.04,3.94-3.85,8.13-7.49,12.44-10.82,10.99-8.47,23.09-15.19,35.95-19.98,4.11-1.54,8.36-2.9,12.64-4.03,11.37-3.02,23.15-4.55,35-4.55.95,0,1.89.01,2.83.04,10.88.21,21.71,1.73,32.17,4.51,4.28,1.13,8.54,2.49,12.64,4.03,15.18,5.65,29.18,13.93,41.61,24.6,2.21,1.89,4.5,3.97,6.78,6.19,9.67,9.44,17.95,20.22,24.61,32.05.52.93,1.04,1.85,1.53,2.79,5.87,10.95,10.3,22.68,13.16,34.85,2.61,11,3.93,22.38,3.93,33.82,0,.33,0,.68-.01,1.01v.3Zm-277.87-.63h277.27c0-.23,0-.46,0-.68,0-11.39-1.31-22.72-3.91-33.67-2.85-12.11-7.26-23.79-13.1-34.69-.49-.93-1.01-1.86-1.53-2.78-6.62-11.77-14.87-22.5-24.5-31.9-2.27-2.21-4.54-4.29-6.75-6.17-12.38-10.63-26.31-18.86-41.42-24.49-4.09-1.53-8.32-2.88-12.59-4.01-10.42-2.77-21.19-4.28-32.03-4.49-.94-.03-1.87-.04-2.81-.04-11.8,0-23.52,1.52-34.85,4.53-4.26,1.13-8.49,2.48-12.59,4.01-12.81,4.77-24.85,11.46-35.79,19.89-4.3,3.31-8.47,6.93-12.39,10.77-9.61,9.38-17.86,20.11-24.5,31.89-.52.92-1.03,1.85-1.52,2.79-5.84,10.9-10.25,22.58-13.1,34.69-2.59,10.95-3.91,22.28-3.91,33.67,0,.22,0,.45,0,.68Z" />
            <path class="cls-2"
                d="m349.09,209.17h-185.83v-.3c-.02-.33-.02-.68-.02-1.01,0-11.67,2.03-23.06,6.02-33.86.94-2.57,2.03-5.16,3.24-7.7,1.06-2.25,2.1-4.25,3.18-6.14,4.34-7.73,9.75-14.81,16.07-21.05,9.45-9.32,20.43-16.34,32.64-20.89,10.17-3.79,20.87-5.72,31.8-5.72.95,0,1.89.01,2.83.04,9.95.31,19.69,2.22,28.96,5.68,12.21,4.54,23.19,11.57,32.64,20.89,6.32,6.23,11.73,13.32,16.07,21.06,2.48,4.37,4.64,9.02,6.41,13.82.87,2.35,1.69,4.88,2.44,7.52,2.38,8.52,3.58,17.38,3.58,26.34,0,.33,0,.68-.01,1.01v.3Zm-185.23-.63h184.64c0-.23,0-.46,0-.68,0-8.9-1.2-17.7-3.56-26.16-.74-2.62-1.55-5.14-2.42-7.47-1.77-4.77-3.91-9.39-6.37-13.73-4.31-7.7-9.68-14.74-15.96-20.92-9.39-9.26-20.3-16.24-32.43-20.75-9.21-3.44-18.89-5.33-28.77-5.64-.93-.03-1.87-.04-2.81-.04-10.86,0-21.49,1.91-31.59,5.68-12.13,4.51-23.04,11.49-32.42,20.75-6.28,6.2-11.65,13.23-15.96,20.91-1.07,1.87-2.1,3.87-3.16,6.1-1.2,2.52-2.28,5.09-3.22,7.65-3.97,10.72-5.98,22.04-5.98,33.63,0,.22,0,.45,0,.68Z" />
            <path class="cls-2"
                d="m302.77,209.17h-93.19v-.3c-.02-.33-.02-.68-.02-1.01,0-8.41,2.16-16.68,6.24-23.92,2.05-3.66,4.6-7.04,7.55-10.05,4.83-4.92,10.52-8.61,16.89-10.98,5.07-1.91,10.44-2.88,15.95-2.88,1.03,0,1.96.03,2.84.09,4.51.28,8.92,1.21,13.11,2.79,6.28,2.33,12.13,6.13,16.89,10.98,2.94,3.01,5.48,6.39,7.55,10.05,4.07,7.24,6.23,15.51,6.23,23.92,0,.33,0,.68-.01,1.01v.3Zm-92.6-.63h92c0-.23,0-.46,0-.68,0-8.29-2.12-16.46-6.14-23.6-2.04-3.61-4.55-6.95-7.45-9.92-4.7-4.79-10.46-8.53-16.66-10.83-4.13-1.55-8.48-2.48-12.93-2.75-.87-.06-1.79-.09-2.8-.09-5.44,0-10.73.95-15.74,2.84-6.29,2.33-11.9,5.98-16.67,10.83-2.92,2.97-5.42,6.31-7.45,9.92-4.03,7.14-6.16,15.3-6.16,23.6,0,.22,0,.45,0,.68Z" />
        </g>
        <g>
            <rect class="cls-2" x="255.87" y="207.86" width=".62" height="1" />
            <polygon class="cls-2" points="256.76 209.06 255.94 208.06 256.41 207.66 257.23 208.66 256.76 209.06" />
            <polygon class="cls-2" points="261.64 209.17 256.13 208.17 256.23 207.55 261.75 208.55 261.64 209.17" />
            <polygon class="cls-2" points="256.33 208.14 256.02 207.59 496.68 65.03 496.99 65.58 256.33 208.14" />
            <polygon class="cls-2" points="256.47 207.97 255.89 207.75 329.51 .21 330.09 .42 256.47 207.97" />
            <polygon class="cls-2" points="255.89 207.97 182.26 .42 182.84 .21 256.47 207.75 255.89 207.97" />
            <polygon class="cls-2" points="256.02 208.14 15.36 65.58 15.67 65.03 256.33 207.59 256.02 208.14" />
            <polygon class="cls-2" points="250.71 209.17 250.61 208.55 256.13 207.55 256.23 208.17 250.71 209.17" />
            <polygon class="cls-2" points="255.6 209.06 255.13 208.66 255.94 207.66 256.41 208.06 255.6 209.06" />
        </g>
    </g>
</svg>