<?xml version="1.0" encoding="UTF-8"?>
<svg id="title" xmlns="http://www.w3.org/2000/svg" width="520" height="50" viewBox="0 0 519.26 50.36">
    <defs>
        <style>
            .cls-1 {
                fill: #f9ebe8;
            }
        </style>
    </defs>
    <path id="r" class="cls-1"
        d="m16.62,50.36C5.04,50.36,0,43.96,0,32.59c0-2.88.25-6.12.82-9.57C3.65,5.68,9.01,0,24.75,0h18.64l-2.33,12.52h-11.33c-9.45,0-12.28,1.15-14.29,11.94-.44,2.45-.69,5.11-.69,6.69,0,5.54,2.96,6.69,10.26,6.69h11.96l-2.33,12.52h-18.01Z" />
    <path id="e" class="cls-1"
        d=" m80.92,0h15.87l-25.82,36.4-2.65,13.96h-14.23l2.65-13.96L44.39,0h14.61l6.93,21.73L80.92,0Z" />
    <path id="h" class="cls-1"
        d="m136.21,33.6c0,1.29-.06,2.59-.31,4.1-1.57,9.42-4.72,12.66-14.8,12.66h-24.87c-3.72,0-5.6-2.59-5.6-5.97,0-.65.06-1.29.19-1.94l6.42-34.53c.94-5.04,3.34-7.91,8.38-7.91h22.98c7.37,0,10.39,3.81,10.39,11.01,0,1.37-.13,2.73-.44,4.53-.88,5.04-2.46,7.7-8.25,8.92l-.06.29c4.16,1.01,5.98,4.39,5.98,8.85Zm-29.72.93c-.13.65-.19,1.22-.19,1.66,0,1.51.69,1.94,2.65,1.94h8c2.52,0,4.35-.58,4.91-3.45.13-.58.13-1.22.13-1.51,0-2.09-1.39-2.73-3.59-2.73h-11.15l-.76,4.1Zm2.83-15.18h10.58c2.52,0,4.09-.22,4.53-3.17.06-.58.13-1.22.13-1.58,0-1.94-1.26-2.37-3.4-2.37h-8c-1.89,0-2.65.72-3.09,2.88l-.76,4.25Z" />
    <path id="p" class="cls-1"
        d="m184,12.23h-21.79c-1.89,0-2.96,1.01-3.34,3.17l-.69,3.74h24.06l-2.08,11.08h-24.06l-.88,4.75c-.06.43-.13.79-.13,1.15,0,1.37.76,2.01,2.27,2.01h22.04l-2.27,12.23h-32.12c-3.72,0-5.6-2.59-5.6-5.97,0-.65.06-1.29.19-1.94l6.42-34.53c.94-5.04,3.34-7.91,8.38-7.91h31.86l-2.27,12.23Z" />
    <path id="y" class="cls-1"
        d="m190.11,7.91c.94-5.04,3.97-7.91,8.38-7.91h23.61c8,0,11.15,4.89,11.15,12.3,0,1.94-.13,4.03-.5,6.26-1.2,7.19-3.02,16.48-13.1,16.48h-1.26l-.06.29,9.13,15.04h-15.87l-7.3-13.09c-1.26-2.3-1.89-3.09-1.89-5.4,0-.5.06-.94.13-1.44l.19-1.08c.82-4.32,3.65-5.68,7.43-5.68h2.14c3.78,0,5.29-1.37,6.11-5.68.19-.86.25-1.66.25-2.3,0-2.45-1.26-3.17-4.28-3.17h-8.12c-1.89,0-2.96,1.01-3.34,3.17l-6.49,34.68h-14.23l7.93-42.45Z" />
    <path id="c" class="cls-1"
        d="m251.13,50.36c-11.59,0-16.62-6.4-16.62-17.77,0-2.88.25-6.12.82-9.57,2.83-17.34,8.19-23.02,23.93-23.02h18.64l-2.33,12.52h-11.33c-9.45,0-12.28,1.15-14.29,11.94-.44,2.45-.69,5.11-.69,6.69,0,5.54,2.96,6.69,10.26,6.69h11.96l-2.33,12.52h-18.01Z" />
    <path id="r-2" data-name="r" class="cls-1"
        d="m315.42,0h15.87l-25.82,36.4-2.64,13.96h-14.23l2.64-13.96L278.9,0h14.61l6.93,21.73,14.99-21.73Z" />
    <path id="e-2" data-name="e" class="cls-1"
        d="m323.8,50.36l7.93-42.45c.94-5.04,3.97-7.91,8.38-7.91h23.74c7.93,0,10.96,4.96,10.96,12.59,0,1.8-.19,4.32-.57,6.69-1.83,11.58-4.47,16.55-15.81,16.55h-17.7l-2.71,14.53h-14.23Zm29.28-27.05c3.78,0,5.54-.5,6.55-4.75.19-.72.32-2.01.32-2.59,0-2.73-1.7-3.45-4.85-3.45h-7.24c-1.89,0-2.96,1.01-3.34,3.17l-1.45,7.63h10.01Z" />
    <path id="b" class="cls-1"
        d="m417.81,50.36h-14.23l3.72-20h-16l-3.72,20h-14.23L382.74,0h14.23l-3.34,17.84h16l3.34-17.84h14.23l-9.38,50.36Z" />
    <path id="y-2" data-name="y" class="cls-1"
        d="m470.02,12.23h-21.79c-1.89,0-2.96,1.01-3.34,3.17l-.69,3.74h24.06l-2.08,11.08h-24.06l-.88,4.75c-.06.43-.13.79-.13,1.15,0,1.37.75,2.01,2.27,2.01h22.04l-2.27,12.23h-32.12c-3.71,0-5.6-2.59-5.6-5.97,0-.65.06-1.29.19-1.94l6.42-34.53c.94-5.04,3.34-7.91,8.38-7.91h31.86l-2.27,12.23Z" />
    <path id="c-2" data-name="c" class="cls-1"
        d="m476.12,7.91c.94-5.04,3.97-7.91,8.38-7.91h23.62c8,0,11.15,4.89,11.15,12.3,0,1.94-.13,4.03-.5,6.26-1.2,7.19-3.02,16.48-13.1,16.48h-1.26l-.06.29,9.13,15.04h-15.87l-7.3-13.09c-1.26-2.3-1.89-3.09-1.89-5.4,0-.5.06-.94.13-1.44l.19-1.08c.82-4.32,3.65-5.68,7.43-5.68h2.14c3.78,0,5.29-1.37,6.11-5.68.19-.86.25-1.66.25-2.3,0-2.45-1.26-3.17-4.28-3.17h-8.12c-1.89,0-2.96,1.01-3.34,3.17l-6.49,34.68h-14.23l7.93-42.45Z" />
</svg>